<?xml version="1.0" encoding="utf-8"?>
<!-- Generator: Adobe Illustrator 24.3.0, SVG Export Plug-In . SVG Version: 6.00 Build 0)  -->
<svg version="1.1" id="Layer_1" xmlns="http://www.w3.org/2000/svg" xmlns:xlink="http://www.w3.org/1999/xlink" x="0px" y="0px"
	 viewBox="0 0 240.391 226.414" enable-background="new 0 0 240.391 226.414" xml:space="preserve">
<defs>
	<script  language="JavaScript"></script>
</defs>
<script  type="text/JavaScript">
	<![CDATA[
function notify( ref, type ) {
    var event = document.createEvent("CustomEvent");
    event.initEvent(type,true,true);
    ref.dispatchEvent(event);
}

		
		
		
		
		
		
		
		
		
		
		
		]]>
</script>
<g>
	<g>
		<path fill="#EA8E10" d="M169.488,16.669c-13.312-2.005-30.541-3.215-49.379-3.215c-17.388,0-33.399,1.03-46.229,2.765V40.46
			H38.112v93.13h167.141V40.91h-35.765V16.669L169.488,16.669z"/>
	</g>
	<path fill="#231F20" d="M169.488,47.872V16.768c18.291,3.174,30.136,8.172,30.136,13.814c3.104,0,5.629,2.596,5.629,5.802v11.488
		H169.488z"/>
	<path fill="#231F20" d="M73.878,47.374V16.269c-18.291,3.175-30.136,8.173-30.136,13.815c-3.105,0-5.632,2.594-5.632,5.801v11.488
		L73.878,47.374L73.878,47.374z"/>
</g>
<path fill="#F5A909" d="M214.561,132.777c-4.225-4.224-12.777-4.512-19.145-8.106c-25.554-14.445-43.263-19.029-73.162-19.029
	c-0.188,0-0.381,0.002-0.568,0.004c-0.188-0.001-0.385-0.004-0.569-0.004c-29.899,0-47.606,4.584-73.161,19.029
	c-6.367,3.597-14.923,3.886-19.147,8.106c-12.045,12.046-4.393,37.98-4.393,37.98c0,0.695,0.555,1.248,1.241,1.248h96.024h96.027
	c0.688,0,1.244-0.553,1.244-1.248C218.953,170.756,226.608,144.823,214.561,132.777z"/>
<path fill="#F5A909" d="M144.792,14.193c0-2.861-9.302-9.327-23.238-9.327c-13.922,0-22.979,6.466-22.979,9.327"/>
<path fill="#231F20" d="M217.479,172.004h-18.505H159.13H83.4H44.153H25.892c-0.728,0-1.31,0.83-1.31,1.861l3.521,8.496
	c0,1.078,0.562,1.967,1.252,1.967h13.404v26.131c0,0.854,0.625,1.549,1.395,1.549h39.246c0.768,0,1.393-0.694,1.393-1.549v-16.332
	h72.936v16.332c0,0.854,0.619,1.549,1.404,1.549h39.844c0.779,0,1.398-0.694,1.398-1.549v-26.131h13.629
	c0.699,0,1.266-0.889,1.266-1.967l3.518-8.496C218.783,172.835,218.192,172.004,217.479,172.004z"/>
<path fill="#12100B" stroke="#4D4947" stroke-width="6" d="M164.145,155.443c0,3.901-3.162,7.063-7.063,7.063H86.286
	c-3.902,0-7.064-3.162-7.064-7.063v-26.56c0-3.907,3.162-7.069,7.064-7.069h70.795c3.901,0,7.063,3.162,7.063,7.069V155.443
	L164.145,155.443z"/>
<path fill="#D0D0D0" stroke="#231F20" stroke-width="4" d="M214.837,147.778c0,8.426-6.817,15.258-15.256,15.258
	c-8.41,0-15.248-6.83-15.248-15.258c0-8.424,6.838-15.255,15.248-15.255C208.02,132.524,214.837,139.354,214.837,147.778z"/>
<path fill="#FFFFFF" stroke="#231F20" stroke-width="2" d="M209.027,147.778c0,5.217-4.222,9.443-9.442,9.443
	c-5.207,0-9.439-4.229-9.439-9.443c0-5.214,4.232-9.441,9.439-9.441C204.806,138.336,209.027,142.564,209.027,147.778z"/>
<path fill="#D0D0D0" stroke="#231F20" stroke-width="4" d="M59.033,147.778c0,8.426-6.817,15.258-15.259,15.258
	c-8.409,0-15.248-6.83-15.248-15.258c0-8.424,6.839-15.255,15.248-15.255C52.214,132.524,59.033,139.354,59.033,147.778z"/>
<path fill="#FFFFFF" stroke="#231F20" stroke-width="2" d="M53.22,147.778c0,5.217-4.221,9.443-9.443,9.443
	c-5.207,0-9.438-4.229-9.438-9.443c0-5.214,4.23-9.441,9.438-9.441C49.001,138.336,53.22,142.564,53.22,147.778z"/>
<line fill="none" stroke="#4D4947" stroke-width="5" x1="81.291" y1="138.493" x2="162.076" y2="138.493"/>
<line fill="none" stroke="#4D4947" stroke-width="5" x1="81.291" y1="130.113" x2="162.076" y2="130.113"/>
<line fill="none" stroke="#4D4947" stroke-width="5" x1="81.291" y1="146.874" x2="162.076" y2="146.874"/>
<line fill="none" stroke="#4D4947" stroke-width="5" x1="81.291" y1="155.254" x2="162.076" y2="155.254"/>
<g>
	<path fill="#FFFFFF" d="M116.98,91.793c0,0.688-0.555,1.249-1.244,1.249H45.023c-0.688,0-1.246-0.562-1.246-1.249V57.367
		c0-0.688,0.56-1.25,1.246-1.25h70.713c0.689,0,1.244,0.562,1.244,1.25V91.793z"/>
	<path fill="#FFFFFF" d="M198.894,91.793c0,0.688-0.556,1.249-1.242,1.249H126.95c-0.692,0-1.264-0.562-1.264-1.249V57.367
		c0-0.688,0.567-1.25,1.264-1.25h70.701c0.688,0,1.242,0.562,1.242,1.25V91.793z"/>
</g>
<g>
	<path fill="#231F20" d="M29.71,86.558c0,0.682-0.549,1.243-1.236,1.243H11.662c-0.684,0-1.248-0.562-1.248-1.243V62.517
		c0-0.689,0.564-1.243,1.248-1.243h16.812c0.688,0,1.236,0.554,1.236,1.243V86.558z"/>
	<path fill="none" stroke="#13110C" stroke-width="6" d="M20.064,87.801c0,5.763,7.994,10.417,17.886,10.417"/>
</g>
<g>
	<path fill="#231F20" d="M213.606,86.558c0,0.682,0.565,1.243,1.241,1.243h16.812c0.677,0,1.242-0.562,1.242-1.243V62.517
		c0-0.689-0.565-1.243-1.242-1.243h-16.812c-0.676,0-1.241,0.554-1.241,1.243V86.558z"/>
	<path fill="none" stroke="#13110C" stroke-width="6" d="M223.257,87.801c0,5.763-7.994,10.417-17.883,10.417"/>
</g>
<path fill="#E30613" stroke="#DD1215" stroke-width="0.2339" d="M174.912,34.682c0,5.866,4.735,10.608,10.596,10.608
	c5.854,0,10.602-4.742,10.602-10.608c0-5.839-4.748-10.596-10.602-10.596C179.649,24.086,174.912,28.843,174.912,34.682z"/>
<path fill="#E30613" stroke="#DD1215" stroke-width="0.2339" d="M46.023,34.682c0,5.866,4.744,10.608,10.584,10.608
	c5.863,0,10.613-4.742,10.613-10.608c0-5.839-4.75-10.596-10.613-10.596C50.767,24.086,46.023,28.843,46.023,34.682z"/>
<g>
	<path d="M286.633,51.402c0.953-0.173,2.46-0.303,3.989-0.303c2.183,0,3.587,0.324,4.643,1.06c0.878,0.562,1.402,1.427,1.402,2.573
		c0,1.406-1.078,2.638-2.857,3.2v0.043c1.604,0.346,3.484,1.492,3.484,3.654c0,1.254-0.575,2.206-1.43,2.919
		c-1.179,0.93-3.085,1.362-5.845,1.362c-1.505,0-2.659-0.086-3.389-0.173L286.633,51.402L286.633,51.402z M288.816,57.37h1.979
		c2.311,0,3.663-1.038,3.663-2.443c0-1.708-1.505-2.378-3.713-2.378c-1.003,0-1.58,0.065-1.932,0.13L288.816,57.37L288.816,57.37z
		 M288.816,64.354c0.427,0.065,1.054,0.087,1.831,0.087c2.258,0,4.34-0.714,4.34-2.833c0-1.989-1.981-2.811-4.364-2.811h-1.807
		V64.354L288.816,64.354z"/>
	<path d="M302.413,51.208v8.627c0,3.265,1.682,4.648,3.938,4.648c2.509,0,4.112-1.427,4.112-4.648v-8.627h2.207v8.498
		c0,4.476-2.732,6.313-6.396,6.313c-3.462,0-6.07-1.708-6.07-6.227v-8.584H302.413z"/>
	<path d="M316.161,63.488c0.979,0.519,2.408,0.952,3.913,0.952c2.232,0,3.537-1.017,3.537-2.487c0-1.362-0.903-2.141-3.188-2.897
		c-2.76-0.843-4.465-2.076-4.465-4.13c0-2.272,2.184-3.957,5.469-3.957c1.73,0,2.984,0.346,3.737,0.714l-0.603,1.535
		c-0.553-0.26-1.683-0.692-3.211-0.692c-2.31,0-3.188,1.189-3.188,2.184c0,1.362,1.028,2.032,3.361,2.811
		c2.858,0.951,4.312,2.14,4.312,4.281c0,2.249-1.932,4.195-5.92,4.195c-1.631,0-3.411-0.411-4.312-0.93L316.161,63.488z"/>
	<path d="M333.997,59.23v1.405h-6.194V59.23H333.997z"/>
	<path d="M336.657,51.402c0.953-0.173,2.459-0.303,3.989-0.303c2.182,0,3.587,0.324,4.641,1.06c0.878,0.562,1.404,1.427,1.404,2.573
		c0,1.406-1.078,2.638-2.858,3.2v0.043c1.604,0.346,3.485,1.492,3.485,3.654c0,1.254-0.576,2.206-1.43,2.919
		c-1.18,0.93-3.086,1.362-5.846,1.362c-1.506,0-2.659-0.086-3.388-0.173L336.657,51.402L336.657,51.402z M338.841,57.37h1.98
		c2.31,0,3.663-1.038,3.663-2.443c0-1.708-1.506-2.378-3.713-2.378c-1.004,0-1.58,0.065-1.933,0.13L338.841,57.37L338.841,57.37z
		 M338.841,64.354c0.428,0.065,1.055,0.087,1.831,0.087c2.258,0,4.34-0.714,4.34-2.833c0-1.989-1.981-2.811-4.363-2.811h-1.808
		V64.354L338.841,64.354z"/>
	<path d="M362.07,65.305c-0.803,0.346-2.408,0.692-4.465,0.692c-4.768,0-8.354-2.595-8.354-7.373c0-4.562,3.587-7.654,8.829-7.654
		c2.107,0,3.438,0.389,4.015,0.649l-0.526,1.535c-0.827-0.346-2.007-0.605-3.411-0.605c-3.964,0-6.598,2.184-6.598,6.011
		c0,3.567,2.383,5.859,6.497,5.859c1.329,0,2.685-0.238,3.562-0.605L362.07,65.305z"/>
	<path d="M364.807,65.78V51.208h2.384l5.418,7.373c1.254,1.708,2.231,3.244,3.035,4.735l0.051-0.021
		c-0.201-1.946-0.251-3.719-0.251-5.989v-6.098h2.058V65.78h-2.207l-5.368-7.395c-1.181-1.622-2.31-3.287-3.16-4.865l-0.075,0.021
		c0.125,1.838,0.176,3.589,0.176,6.011v6.227L364.807,65.78L364.807,65.78z"/>
</g>
<g>
	<defs>
		<path id="SVGID_1_" d="M150.108,90.736c0,0.688-0.556,1.249-1.242,1.249H78.164c-0.692,0-1.264-0.562-1.264-1.249V56.31
			c0-0.688,0.567-1.25,1.264-1.25h70.701c0.689,0,1.242,0.562,1.242,1.25V90.736z"/>
	</defs>
	<clipPath id="SVGID_2_">
		<use xlink:href="#SVGID_1_"  overflow="visible"/>
	</clipPath>
	<g clip-path="url(#SVGID_2_)">
		<g>
			<path fill="#FDFDFD" d="M80.423,101.391c0-14.803,0.004-29.606-0.017-44.409c-0.001-0.566,0.15-0.629,0.658-0.628
				c10.922,0.017,21.844,0.017,32.767,0c0.474-0.001,0.576,0.094,0.576,0.574c-0.016,17.34-0.016,34.68,0.001,52.02
				c0,0.472-0.118,0.533-0.551,0.532c-6.694-0.016-13.388-0.012-20.083-0.012c0.141-0.24,0.411-0.176,0.619-0.257
				c0.553-0.216,1.085-0.441,1.147-1.135c2.326,0.784,4.641,1.035,6.998,0.461c1.009-0.246,1.337-0.854,0.677-1.549
				c-0.916-0.964-0.611-1.749-0.195-2.76c0.913-2.219,1.291-4.562,1.193-6.979c0.436-0.025,0.75,0.322,1.18,0.282
				c0.031-0.27-0.142-0.423-0.25-0.601c-0.838-1.371-1.669-2.745-2.423-4.166c-0.239-0.449-0.155-0.764,0.192-1.012
				c0.458-0.328,0.878-0.725,1.483-0.82c0.418-0.065,0.868-0.278,1.051-0.63c0.444-0.858,1.163-0.882,1.954-0.836
				c0.393,0.023,0.794-0.013,1.178-0.045c0.73-0.062,1.158-0.724,1.749-1.078c0.016-0.009,0.028-0.039,0.027-0.059
				c-0.019-0.465,0.266-0.535,0.656-0.591c0.823-0.118,1.096-0.675,0.647-1.372c-0.227-0.352-0.124-0.47,0.16-0.647
				c0.748-0.464,1.506-0.917,1.996-1.694c0.871-1.381,0.433-2.86-1.021-3.428c-0.955-0.373-1.86-0.28-2.73,0.255
				c-1.724,1.061-3.447,2.123-5.179,3.171c-0.309,0.187-0.59,0.444-1.004,0.521c-0.012-0.727-0.172-1.434,0.28-2.068
				c0.075-0.106,0.151-0.218,0.092-0.365c-0.389-0.958-0.754-1.926-1.176-2.87c-0.133-0.298-0.523-0.358-0.811-0.336
				c-0.306,0.023-0.164,0.359-0.185,0.552c-0.094,0.877-0.159,1.757-0.235,2.637c-0.013,0.151-0.05,0.297,0.036,0.449
				c0.533,0.942,0.47,1.86-0.179,2.722c-0.034-0.027-0.076-0.048-0.099-0.082c-0.836-1.211-1.385-2.614-2.446-3.673
				c-0.177-0.177,0.009-0.268,0.065-0.39c0.407-0.88-0.032-1.594-1.005-1.637c-0.129-0.006-0.334,0.145-0.361-0.114
				c-0.047-0.459-0.425-0.976,0.249-1.322c0.286-0.147,0.467-0.455,0.412-0.776c-0.089-0.518,0.205-0.611,0.598-0.709
				c1.137-0.283,2.227-0.695,3.2-1.362c0.975-0.669,0.963-1.467,0.006-2.163c-0.444-0.324-0.886-0.65-1.207-1.116
				c-0.172-0.25-0.207-0.424,0.014-0.685c0.378-0.447,0.585-0.992,0.572-1.583c-0.007-0.331,0.091-0.464,0.421-0.499
				c0.358-0.038,0.724-0.114,0.932-0.473c-0.154-0.148-0.263-0.054-0.381-0.001c-0.14,0.063-0.281,0.133-0.429,0.167
				c-0.205,0.046-0.457,0.186-0.608-0.05c-0.177-0.276,0.117-0.376,0.27-0.506c1.118-0.954,1.861-2.15,2.362-3.524
				c0.184-0.505,0.089-0.777-0.424-0.951c-0.853-0.289-1.69-0.624-2.539-0.923c-0.374-0.131-0.541-0.376-0.611-0.762
				c-0.18-0.981-0.181-1.976-0.279-2.962c-0.089-0.896-0.211-1.006-1.067-0.833c-1.013,0.205-2.031,0.39-3.032,0.641
				c-0.418,0.105-0.711,0.026-1.016-0.244c-0.692-0.613-1.389-1.222-2.103-1.81c-0.656-0.54-0.97-0.522-1.481,0.151
				c-0.558,0.736-1.061,1.514-1.577,2.281c-0.139,0.207-0.252,0.38-0.555,0.371c-0.956-0.027-1.878-0.246-2.811-0.427
				c-1.498-0.29-1.909-0.161-1.868,1.331c0.021,0.772-0.029,1.548,0.043,2.314c0.054,0.575-0.185,0.834-0.668,1.036
				c-0.75,0.313-1.492,0.651-2.215,1.021c-0.709,0.363-0.754,0.553-0.376,1.244c0.433,0.791,0.877,1.577,1.332,2.355
				c0.226,0.386,0.23,0.695-0.078,1.066c-0.591,0.71-1.114,1.478-1.691,2.201c-0.253,0.317-0.201,0.484,0.103,0.738
				c0.764,0.638,1.617,1.145,2.416,1.73c0.424,0.31,0.593,0.647,0.423,1.183c-0.159,0.5-0.227,1.031-0.321,1.55
				c-0.072,0.395,0.098,0.615,0.501,0.701c0.591,0.126,1.195,0.156,1.772,0.052c0.769-0.139,1.146,0.214,1.387,0.858
				c0.054,0.144,0.137,0.283,0.161,0.432c0.075,0.47,0.374,0.532,0.769,0.469c0.727-0.115,1.359-0.46,2.009-0.852
				c0.152,0.623,0.548,1.229-0.269,1.658c-0.1,0.053-0.205,0.217-0.203,0.327c0.013,0.737-0.585,1.017-1.016,1.429
				c-0.26,0.248-0.605,0.418-0.747,0.781c-0.095,0.113-0.189,0.227-0.284,0.34c-0.742,0.4-1.061,1.146-1.433,1.827
				c-1.444,2.641-1.448,3.829,0.622,5.992c1.113,1.163,1.031,2.159,0.543,3.396c-0.113,0.286-0.242,0.566-0.348,0.855
				c-0.152,0.415-0.436,0.681-0.822,0.894c-1.252,0.69-2.481,1.422-3.734,2.11c-1.079,0.593-1.806,1.447-2.146,2.638
				C80.586,101.086,80.618,101.297,80.423,101.391z"/>
			<path fill="#191409" d="M80.423,101.391c0.195-0.094,0.163-0.305,0.207-0.459c0.34-1.191,1.068-2.045,2.146-2.638
				c1.253-0.688,2.482-1.42,3.734-2.11c0.386-0.213,0.67-0.479,0.822-0.894c0.106-0.289,0.235-0.569,0.348-0.855
				c0.487-1.237,0.57-2.233-0.543-3.396c-2.069-2.163-2.066-3.351-0.622-5.992c0.372-0.681,0.691-1.427,1.433-1.827
				c0.1,0.242-0.096,0.361-0.216,0.507c-0.545,0.669-0.919,1.442-1.345,2.186c-0.88,1.536-0.589,2.897,0.38,4.299
				c1.05,1.52,2.603,2.566,3.63,4.129c0.437,0.665,1.11,1.192,1.329,2.027c0.045,0.171,0.12,0.358,0.333,0.356
				c0.23-0.002,0.426-0.108,0.522-0.335c0.107-0.251,0.091-0.513,0.075-0.78c-0.027-0.431-0.211-0.825-0.324-1.261
				c0.428,0.018,0.339,0.401,0.513,0.568c0.005,0.434,0.132,0.854,0.087,1.3c-0.043,0.422,0.226,0.287,0.442,0.165
				c0.523-0.474,0.478-1.071,0.363-1.684c-0.047-0.25-0.223-0.491-0.075-0.867c0.382,0.624,0.477,1.204,0.416,1.823
				c-0.014,0.139-0.11,0.32,0.093,0.401c0.165,0.066,0.295-0.045,0.414-0.142c0.183-0.149,0.241-0.353,0.253-0.584
				c0.032-0.633,0.006-1.25-0.4-1.784c-0.468-1.23-1.423-1.992-2.511-2.627l0.008,0.008c-0.002-0.093-0.051-0.138-0.141-0.14
				l0.009,0.012c-0.05-0.068-0.101-0.136-0.151-0.204l-0.012-0.043c0,0-0.044-0.009-0.044-0.009
				c-0.063-0.094-0.215-0.124-0.203-0.274c0.212-0.058,0.369,0.027,0.536,0.161c0.478,0.385,0.983,0.737,1.455,1.128
				c0.288,0.239,0.519,0.289,0.866,0.073c1.733-1.076,3.484-2.123,5.229-3.181c0.875-0.47,0.896-0.52,0.631-1.416
				c-0.235-0.795-0.501-1.583-0.689-2.388c-0.124-0.533-0.374-0.748-0.904-0.62c-1.914-0.064-3.808,0.125-5.688,0.468
				c-0.232,0.042-0.47,0.074-0.675,0.231c-0.912,0.698-1.728,1.478-2.352,2.457c-0.271,0.425-0.238,0.738,0.094,1.102
				c0.167,0.183,0.537,0.338,0.299,0.714c-0.171-0.156-0.342-0.311-0.514-0.467c0,0-0.001,0.026-0.001,0.026
				c-0.018-0.04-0.035-0.079-0.053-0.119c-0.12-0.285-0.556-0.469-0.351-0.852c0.843-1.579,1.881-2.982,3.746-3.41
				c1.56-0.358,3.164-0.388,4.756-0.49c0.95,0.044,0.95,0.044,0.719-0.848c-0.033-0.126-0.064-0.253-0.097-0.379
				c0.092-0.052,0.252-0.145,0.268-0.006c0.087,0.768,0.707,1.268,0.943,1.947c0.319,0.914,0.563,1.853,0.866,2.869
				c0.231-0.325,0.411-0.564,0.575-0.814c0.143-0.217,0.267-0.447,0.4-0.671c0.28-0.291-0.056-0.438-0.169-0.598
				c-0.722-1.022-1.186-2.207-2-3.17c-0.266-0.315-0.528-0.6-0.994-0.418c-0.106,0.008-0.15,0.078-0.17,0.172
				c-0.184,0.137-0.335,0.336-0.598,0.331c-0.329,0.159-0.643,0.097-0.939-0.081c-0.147-0.089-0.235-0.115-0.387,0.031
				c-0.834,0.802-1.234,0.797-2.094,0.016c-0.783,0.947-1.343,0.971-2.186,0.029c-0.2-0.223-0.291-0.072-0.429-0.014
				c-0.416,0.175-0.875,0.205-1.159-0.132c-0.342-0.407-0.506-0.154-0.777,0.034c-0.436,0.304-0.687,0.883-1.317,0.899
				c0.142-0.363,0.487-0.533,0.747-0.781c0.431-0.412,1.029-0.692,1.016-1.429c-0.002-0.111,0.102-0.275,0.203-0.327
				c0.818-0.429,0.422-1.035,0.269-1.658c-0.65,0.392-1.283,0.737-2.009,0.852c-0.395,0.063-0.694,0.001-0.769-0.469
				c-0.024-0.149-0.107-0.288-0.161-0.432c-0.241-0.644-0.617-0.997-1.387-0.858c-0.578,0.104-1.181,0.074-1.772-0.052
				c-0.403-0.086-0.573-0.305-0.501-0.701c0.094-0.52,0.162-1.05,0.321-1.55c0.17-0.536,0.001-0.873-0.423-1.183
				c-0.799-0.585-1.652-1.092-2.416-1.73c-0.304-0.254-0.356-0.421-0.103-0.738c0.577-0.723,1.099-1.49,1.691-2.201
				c0.308-0.371,0.304-0.68,0.078-1.066c-0.456-0.778-0.899-1.564-1.332-2.355c-0.379-0.692-0.333-0.881,0.376-1.244
				c0.723-0.37,1.465-0.708,2.215-1.021c0.483-0.202,0.722-0.461,0.668-1.036c-0.072-0.766-0.022-1.543-0.043-2.314
				c-0.04-1.492,0.37-1.62,1.868-1.331c0.932,0.18,1.854,0.399,2.811,0.427c0.302,0.009,0.416-0.165,0.555-0.371
				c0.516-0.767,1.019-1.545,1.577-2.281c0.51-0.673,0.825-0.691,1.481-0.151c0.713,0.588,1.411,1.196,2.103,1.81
				c0.305,0.27,0.598,0.349,1.016,0.244c1.001-0.251,2.019-0.437,3.032-0.641c0.857-0.173,0.978-0.063,1.067,0.833
				c0.098,0.987,0.099,1.982,0.279,2.962c0.071,0.385,0.237,0.63,0.611,0.762c0.85,0.299,1.687,0.633,2.539,0.923
				c0.514,0.174,0.608,0.446,0.424,0.951c-0.5,1.374-1.244,2.571-2.362,3.524c-0.153,0.13-0.447,0.23-0.27,0.506
				c0.152,0.236,0.403,0.096,0.608,0.05c0.148-0.033,0.289-0.104,0.429-0.167c0.117-0.053,0.227-0.147,0.381,0.001
				c-0.208,0.36-0.574,0.435-0.932,0.473c-0.331,0.036-0.429,0.168-0.421,0.499c0.013,0.591-0.194,1.137-0.572,1.583
				c-0.221,0.261-0.186,0.436-0.014,0.685c0.321,0.465,0.762,0.792,1.207,1.116c0.956,0.697,0.968,1.495-0.006,2.163
				c-0.972,0.667-2.063,1.079-3.2,1.362c-0.393,0.098-0.687,0.191-0.598,0.709c0.055,0.322-0.126,0.63-0.412,0.776
				c-0.675,0.346-0.296,0.863-0.249,1.322c0.027,0.259,0.232,0.108,0.361,0.114c0.973,0.043,1.411,0.757,1.005,1.637
				c-0.056,0.122-0.242,0.213-0.065,0.39c1.061,1.059,1.61,2.462,2.446,3.673c0.024,0.034,0.066,0.055,0.099,0.082
				c0.649-0.861,0.712-1.779,0.179-2.722c-0.086-0.152-0.049-0.297-0.036-0.449c0.076-0.879,0.141-1.759,0.235-2.637
				c0.021-0.192-0.121-0.528,0.185-0.552c0.288-0.022,0.678,0.038,0.811,0.336c0.422,0.943,0.787,1.912,1.176,2.87
				c0.059,0.146-0.016,0.259-0.092,0.365c-0.452,0.634-0.292,1.341-0.28,2.068c0.413-0.077,0.695-0.334,1.004-0.521
				c1.732-1.047,3.455-2.11,5.179-3.171c0.87-0.535,1.775-0.628,2.73-0.255c1.455,0.568,1.893,2.047,1.021,3.428
				c-0.49,0.777-1.248,1.229-1.996,1.694c-0.284,0.176-0.386,0.295-0.16,0.647c0.449,0.696,0.176,1.254-0.647,1.372
				c-0.39,0.056-0.674,0.127-0.656,0.591c0.001,0.02-0.012,0.049-0.027,0.059c-0.591,0.354-1.018,1.016-1.749,1.078
				c-0.385,0.032-0.785,0.068-1.178,0.045c-0.791-0.046-1.51-0.022-1.954,0.836c-0.183,0.352-0.633,0.565-1.051,0.63
				c-0.605,0.094-1.025,0.492-1.483,0.82c-0.347,0.248-0.43,0.563-0.192,1.012c0.755,1.421,1.585,2.795,2.423,4.166
				c0.108,0.177,0.282,0.331,0.25,0.601c-0.43,0.039-0.744-0.308-1.18-0.282c0.099,2.417-0.28,4.76-1.193,6.979
				c-0.416,1.011-0.721,1.796,0.195,2.76c0.66,0.694,0.331,1.303-0.677,1.549c-2.357,0.575-4.672,0.323-6.998-0.461
				c-0.062,0.694-0.594,0.919-1.147,1.135c-0.207,0.081-0.478,0.017-0.619,0.257c-0.749,0-1.498,0-2.247,0
				c-0.905-0.381-1.796-0.78-2.587-1.383c-0.425-0.324-0.789-0.627-0.463-1.285c-0.834,0.185-1.549,0.382-2.276,0.499
				c-2.709,0.437-4.735-0.823-5.539-3.395c-0.069-0.22-0.031-0.487-0.238-0.66C80.423,102.627,80.423,102.009,80.423,101.391z
				 M103.302,66.035l-0.01,0.011c0.123-0.053,0.15-0.155,0.143-0.276l-0.009,0.012c0.244-0.208,0.316-0.512,0.427-0.79
				c0.325-0.811,0.321-0.812-0.489-1.078c-0.791-0.26-1.583-0.511-2.337-0.874c-0.348-0.167-0.526-0.392-0.605-0.779
				c-0.211-1.041-0.219-2.098-0.301-3.148c-0.037-0.471-0.141-0.674-0.677-0.542c-1.063,0.263-2.144,0.454-3.214,0.69
				c-0.344,0.076-0.606,0.007-0.911-0.194c-0.844-0.555-1.445-1.402-2.331-1.898c-0.454-0.491-0.654-0.505-1.065,0.054
				c-0.574,0.779-1.108,1.588-1.636,2.4c-0.19,0.292-0.386,0.387-0.748,0.37c-1.186-0.054-2.312-0.454-3.488-0.558
				c-0.604-0.054-0.86,0.197-0.855,0.776c0.008,0.926-0.029,1.855,0.04,2.776c0.047,0.617-0.199,0.934-0.723,1.16
				c-0.786,0.34-1.554,0.724-2.339,1.067c-0.423,0.185-0.495,0.426-0.262,0.822c0.468,0.797,0.898,1.616,1.37,2.41
				c0.296,0.498,0.289,0.904-0.116,1.363c-0.537,0.61-0.985,1.298-1.501,1.929c-0.258,0.315-0.288,0.515,0.083,0.764
				c0.749,0.503,1.465,1.053,2.209,1.564c0.541,0.372,0.731,0.831,0.531,1.475c-0.137,0.44-0.197,0.903-0.305,1.353
				c-0.086,0.358,0.031,0.528,0.405,0.578c0.55,0.073,1.101,0.099,1.644-0.001c0.687-0.126,1.144,0.109,1.402,0.755
				c0.065,0.163,0.183,0.311,0.221,0.478c0.122,0.533,0.419,0.665,0.908,0.456c0.181-0.077,0.379-0.114,0.562-0.189
				c1.079-0.44,1.177-0.731,0.665-1.762c-0.152-0.307-0.264-0.33-0.584-0.193c-0.843,0.363-1.754-0.103-2.057-0.991
				c-0.327-0.957,0.141-2.028,1-2.29c0.696-0.212,1.307,0.035,1.448,0.585c-1.149-0.565-1.66-0.462-2.127,0.429
				c-0.27,0.657-0.167,1.254,0.341,1.743c0.419,0.403,0.909,0.515,1.437,0.178c0.125-0.114,0.244-0.236,0.377-0.339
				c0.235-0.183,0.296-0.075,0.261,0.17c0.325,1.085,0.77,2.135,0.917,3.271c0.039,0.303,0.317,0.244,0.521,0.286
				c0.349,0.468,0.757,0.669,1.321,0.342c0.097-0.056,0.29-0.051,0.383,0.011c0.529,0.349,0.968,0.53,1.536-0.045
				c0.326-0.33,0.96,0.237,1.264,0.091c0.372-0.178,0.614-0.658,1.138-0.653c0.087,0.001,0.176-0.002,0.262-0.016
				c0.097-0.016,0.181-0.105,0.151-0.18c-0.176-0.449,0.112-1.069-0.558-1.346c0.36-0.193,0.68-0.33,0.961-0.524
				c0.287-0.198,0.353-0.532,0.224-0.829c-0.125-0.288-0.389-0.069-0.583-0.037c-1.813,0.299-3.631,0.418-5.436-0.003
				c-0.448-0.104-0.683-0.138-0.546,0.514c-0.569-0.729-0.356-1.531,0.333-1.658c-0.421,0.727-0.422,0.735,0.416,0.903
				c1.327,0.267,2.665,0.292,4.003,0.118c1.97-0.257,3.899-0.661,5.618-1.738c0.037-0.001,0.062-0.018,0.075-0.053
				c0.046-0.006,0.077-0.031,0.093-0.074c0.727-0.562,0.742-1.066,0.026-1.61c-0.538-0.408-1.103-0.779-1.437-1.397
				c-0.137-0.254-0.235-0.009-0.347,0.045c-0.272,0.117-0.504,0.245-0.436,0.621c0.036,0.2-0.103,0.375-0.222,0.534
				c-0.601,0.801-2.257,1.071-3.156,0.494c0.215-0.153,0.43-0.062,0.637-0.047c0.592,0.043,1.184,0.081,1.744-0.179
				c0.595-0.276,0.781-0.67,0.596-1.238c-0.002-0.244-0.15-0.4-0.331-0.527c-0.493-0.347-2.504-0.269-3.041,0.114
				c-0.156,0.213-0.299,0.437-0.47,0.637c-1.549,1.813-4.553,1.441-5.5-0.752c-0.315-0.73-0.714-0.834-1.351-0.737
				c-0.1,0.015-0.21,0.089-0.332-0.106c0.263-0.285,0.624-0.224,0.942-0.197c0.321,0.027,0.442-0.037,0.39-0.38
				c-0.029-0.191,0.042-0.395,0.034-0.592c-0.015-0.367,0.405-0.672,0.169-1.054c-0.22-0.356-0.65-0.431-0.969-0.658
				c-0.019-0.013-0.002-0.076-0.002-0.133c0.061-0.014,0.125-0.051,0.177-0.038c0.754,0.182,1.453,0.068,2.059-0.343
				c0.76-0.517,0.759-0.516,0.145-1.286c-0.027-0.034-0.004-0.11-0.004-0.166c0.271-0.061,0.438,0.131,0.486,0.28
				c0.233,0.713,0.76,0.705,1.34,0.614c0.043-0.007,0.088-0.004,0.132-0.002c0.981,0.044,0.98,0.044,1.068-0.937
				c0.002-0.026,0.066-0.046,0.116-0.08c0.435,0.419-0.181,1.037,0.2,1.379c0.362,0.325,0.784,0.596,1.075,0.941
				c0.768-0.661,1.101-1.355,0.239-2.108c0.19-0.172,0.307-0.096,0.342-0.006c0.333,0.868,0.911,0.884,1.64,0.519
				c0.309-0.155,0.776,0.111,0.991-0.187c0.218-0.302,0-0.725,0.021-1.094c0.001-0.025,0.062-0.047,0.133-0.098
				c0.236,0.245,0.215,0.567,0.188,0.848c-0.037,0.384,0.038,0.627,0.447,0.716c0.145,0.031,0.279,0.128,0.409,0.21
				c0.557,0.355,0.794,0.297,1.091-0.287c0.073-0.144,0.069-0.339,0.313-0.423c0.1,0.514-0.178,0.825-0.498,1.071
				c-0.461,0.354,0.038,0.531,0.131,0.744c0.17,0.387,0.359,0.033,0.483-0.076c0.56-0.493,1.051-1.045,1.348-1.746
				C103.263,66.147,103.319,66.12,103.302,66.035z M96.939,92.923c0.002,0.109-0.003,0.222,0.131,0.265
				c-0.003,0.324,0.173,0.565,0.345,0.807c-0.019-0.314-0.129-0.587-0.333-0.819c-0.002-0.109-0.003-0.218-0.131-0.265
				c-0.004-0.109-0.002-0.221-0.138-0.26c0.003-0.113,0.006-0.226-0.137-0.262c0-0.11,0.003-0.222-0.131-0.266
				c-0.008-0.058-0.016-0.117-0.024-0.175c-0.023,0.011-0.046,0.023-0.069,0.034c0.034,0.045,0.067,0.089,0.101,0.134
				c0.006,0.107,0.012,0.215,0.132,0.266c-0.001,0.11-0.001,0.221,0.127,0.27C96.812,92.762,96.811,92.872,96.939,92.923z
				 M100.777,89.477c-0.007-0.016-0.012-0.033-0.023-0.046c-0.006-0.007-0.021-0.007-0.032-0.009
				c0.02,0.016,0.041,0.032,0.061,0.049c0.009,0.144-0.022,0.302,0.13,0.4c0.018,0.248,0.067,0.483,0.267,0.657
				c0.007,0.254,0.066,0.487,0.263,0.666c0.059,0.256,0.118,0.512,0.195,0.841c0.124-0.387,0.021-0.628-0.204-0.834
				c0.014-0.262-0.056-0.491-0.263-0.666c0.01-0.259-0.073-0.481-0.266-0.658C100.895,89.733,100.918,89.578,100.777,89.477z
				 M93.774,97.95c-0.136,0.028-0.301-0.025-0.391,0.136c-0.145,0.009-0.299-0.01-0.402,0.129c-0.292,0.026-0.641,0.069-0.693,0.388
				c-0.124,0.757-0.313,1.528-0.013,2.292c0.048-0.452,0.028-0.906,0.053-1.358c0.028-0.527,0.109-1.044,0.647-1.329
				c0.144-0.012,0.307,0.034,0.402-0.13c0.144-0.006,0.296,0.011,0.392-0.134c0.094-0.01,0.187-0.021,0.333-0.037
				C93.929,97.81,93.842,97.845,93.774,97.95z M108.324,88.409c-0.043-0.155-0.168-0.106-0.272-0.11
				c-0.158-0.105-0.281-0.241-0.492-0.291c-0.292-0.069-0.557-0.167-0.692,0.197c-0.124,0.334,0.127,0.479,0.369,0.592
				c0.512,0.239,1.034,0.444,1.618,0.275c0.336-0.156,0.488-0.309-0.001-0.467c-0.182-0.059-0.358-0.134-0.537-0.202L108.324,88.409
				z M98.266,95.164c0.272-0.158,0.583-0.366,0.473-0.693c-0.098-0.29-0.412-0.248-0.723-0.047c0.457,0.151,0.294,0.466,0.258,0.749
				c-0.117-0.013-0.208,0.028-0.269,0.13c-0.378,0.064-0.749,0.117-0.681-0.579c-0.283,0.324-0.613,0.515-0.428,0.809
				c0.206,0.327,0.55,0.09,0.829,0.014c0.124-0.034,0.233-0.112,0.272-0.252C98.109,95.296,98.213,95.283,98.266,95.164z
				 M104.778,90.438c0.351-0.113,0.576-0.371,0.75-0.676c0.067-0.117,0.064-0.264-0.069-0.345c-0.179-0.108-0.374-0.09-0.556-0.002
				c-0.152,0.074-0.067,0.165-0.001,0.255c0.233,0.316-0.114,0.451-0.21,0.664c-0.209,0.051-0.417,0.134-0.624-0.017
				c-0.084-0.061-0.153-0.268-0.289-0.074c-0.057,0.081-0.094,0.205-0.08,0.3c0.022,0.15,0.153,0.196,0.298,0.178
				C104.278,90.686,104.559,90.648,104.778,90.438z M81.75,102.048c0.01,0.12,0.02,0.239,0.029,0.359
				c0.051-0.128,0.094-0.263-0.036-0.353c-0.037-0.966,0.293-1.807,0.869-2.564c2.526-1.655,5.231-3.011,7.925-4.675
				c-0.428-0.066-0.609,0.113-0.807,0.226c-1.395,0.794-2.8,1.573-4.177,2.397c-1.034,0.619-2.176,1.068-3.061,1.926
				C81.731,100.115,81.401,100.987,81.75,102.048z M97.482,105.846c-0.182-0.025-0.364-0.05-0.546-0.075
				c-0.31-0.136-0.641-0.107-0.966-0.124c-0.293-0.015-0.59-0.041-0.584,0.393c0.004,0.355-0.139,0.76,0.405,0.882
				c0.618,0.138,1.238,0.244,1.868,0.314c0.424,0.047,0.616-0.105,0.629-0.518c0.437-0.512,0.205-0.729-0.353-0.801
				c-0.106-0.014-0.213-0.024-0.32-0.036C97.571,105.869,97.527,105.857,97.482,105.846z M91.786,106.432
				c0.909-0.289,1.826-0.286,2.766-0.014c-0.077-0.356-0.291-0.461-0.564-0.538c-0.888-0.249-1.729,0.064-2.586,0.186
				c-0.491-0.059-0.701,0.559-1.194,0.497c-0.223-0.388-0.41-0.088-0.594,0.04c-0.154,0.107-0.192,0.365-0.441,0.354
				c-0.164-0.008-0.361-0.335-0.473,0.101c-0.085,0.329,0.039,0.503,0.273,0.661c0.437,0.297,0.854,0.635,1.321,0.874
				c0.885,0.452,1.805,0.814,2.83,0.47c0.439,0.171,0.849-0.01,1.236-0.157c0.357-0.135,0.853-0.186,0.814-0.777
				c-0.063-0.959-0.28-1.295-0.975-1.472c-1.088-0.176-2.146-0.166-3.105,0.484c-0.146,0.099-0.281,0.234-0.443,0.284
				c-0.384,0.119-0.646-0.174-0.801-0.42c-0.138-0.22,0.062-0.434,0.36-0.445c0.178,0.138-0.19,0.395,0.134,0.529
				c0.244,0.1,0.367-0.051,0.53-0.142C91.179,106.776,91.483,106.604,91.786,106.432z M109.739,85.729
				c-0.362,0.27-0.278,0.562-0.011,0.826c0.201,0.199,0.516,0.317,0.649,0.547c0.355,0.618,0.701,0.348,1.074,0.061
				c0.243-0.221,0.094-0.464-0.003-0.665C111.141,85.862,110.527,85.599,109.739,85.729z M108.501,87.02
				c-0.286-0.024-0.572,0.066-0.657,0.323c-0.099,0.298,0.205,0.459,0.412,0.608c0.379,0.274,0.795,0.476,1.273,0.501
				c0.393,0.021,0.66-0.094,0.538-0.569C109.776,87.174,109.143,87.089,108.501,87.02z M102.587,87.705
				c-2.774,1.576-5.548,3.153-8.321,4.729c0.04,0.069,0.08,0.138,0.12,0.208c0.758-0.432,1.518-0.859,2.272-1.297
				c2.015-1.17,4.027-2.345,6.04-3.518c1.78-0.996,3.561-1.993,5.341-2.99c0.158-0.089,0.319-0.189,0.223-0.409
				c-0.137-0.315-0.134-0.732-0.55-0.962c-0.032,0.147-0.044,0.17-0.039,0.188c0.018,0.061,0.028,0.132,0.065,0.179
				c0.41,0.509,0.247,0.771-0.307,1.073C105.794,85.8,104.198,86.767,102.587,87.705z M104.687,85.161
				c0.195-0.041,0.37-0.116,0.477-0.298c0.826-0.586,1.883-0.867,2.407-1.861c0.108-0.206,0.391-0.338,0.633-0.295
				c0.468,0.083,0.799-0.164,1.148-0.384c0.484-0.305,0.954-0.635,1.446-0.927c0.468-0.278,0.961-0.505,1.551-0.312
				c-0.49,0.21-1.025,0.299-1.477,0.599c-0.678,0.451-1.353,0.914-2.067,1.304c-0.52,0.284-0.699,0.573-0.361,1.115
				c0.277,0.445,0.121,0.758-0.34,1.012c-0.82,0.453-0.872,0.728-0.399,1.524c0.07,0.119,0.134,0.253,0.295,0.178
				c0.5-0.233,0.979-0.013,1.445,0.077c0.085-0.127,0.009-0.187-0.042-0.253c-0.245-0.32-0.236-0.66-0.039-0.989
				c0.19-0.317,0.522-0.279,0.83-0.275c0.27,0.003,0.519,0.078,0.751,0.219c0.124,0.075,0.245,0.213,0.414,0.091
				c0.937-0.678,2.038-1.183,2.475-2.385c0.345-0.951-0.033-1.937-0.932-2.409c-0.935-0.491-1.836-0.348-2.697,0.174
				c-2.127,1.29-4.244,2.599-6.373,3.888c-0.18,0.109-0.344,0.371-0.632,0.202c0.484-0.662,0.526-1.618,0.097-2.049
				c-0.436-0.236-0.666-0.182-0.719,0.388c-0.107,1.144-0.575,2.155-1.263,3.072c-0.252,0.336-0.459,0.707-0.686,1.062
				c1.389-0.796,2.778-1.503,4.022-2.443L104.687,85.161z M96.614,90.757c3.587-2.05,7.175-4.099,10.762-6.149
				c0.057-0.033,0.112-0.069,0.168-0.104c0.183-0.113,0.121-0.25,0.044-0.396c-0.088-0.168-0.191-0.221-0.364-0.104
				c-0.218,0.148-0.446,0.282-0.67,0.42c-3.347,2.066-6.694,4.132-10.042,6.198c-0.15,0.079-0.299,0.157-0.49,0.257
				C96.302,90.983,96.461,90.881,96.614,90.757z M101.924,106.519c-0.123,0.18-0.242,0.363-0.368,0.541
				c-0.329,0.462-0.837,0.631-1.347,0.661c-0.461,0.028-0.733-0.343-0.904-0.755c-0.104-0.249-0.211-0.498-0.338-0.794
				c-0.259,0.262-0.364,0.505-0.406,0.763c-0.084,0.529-0.385,0.636-0.882,0.598c-0.721-0.054-1.421-0.224-2.135-0.351
				c-0.093,0.505,0.193,0.656,0.556,0.776c1.724,0.569,3.497,0.67,5.286,0.521c0.538-0.045,1.096-0.126,1.567-0.454
				c0.372-0.133,0.286-0.423,0.173-0.654c-0.164-0.333-0.387-0.638-0.591-0.951C102.263,106.005,102.071,106.13,101.924,106.519z
				 M101.139,93.005c-0.498,0.323-1.002,0.636-1.491,0.972c-0.211,0.145-0.482,0.226-0.579,0.511
				c-0.334,0.977-1.052,1.396-2.052,1.449c-0.504,0.026-0.858,0.258-0.8,0.863c1.081-0.227,2.124-0.528,3.186-0.647
				c1.075-0.121,2.063-0.297,2.722-1.26c0.492-0.235,0.972-0.17,1.57,0.236c-0.385-0.707-0.707-1.205-0.937-1.744
				c-0.266-0.625-0.532-1.07-1.252-0.5C101.412,92.959,101.263,92.966,101.139,93.005z M103.664,98.582
				c-0.52-0.225-0.127-0.682-0.254-1.011c-0.12-0.31,0.023-0.814-0.387-0.891c-0.336-0.063-0.532,0.349-0.671,0.637
				c-1.228,2.554-1.905,5.229-1.72,8.085c0.017,0.26-0.001,0.603,0.308,0.661c0.286,0.053,0.443-0.255,0.577-0.471
				c0.43-0.695,0.714-1.459,0.98-2.228c0.44,0.125,0.144,0.401,0.086,0.575c-0.174,0.515-0.396,1.013-0.642,1.623
				c0.383-0.158,0.416-0.399,0.497-0.585c0.957-2.21,1.497-4.515,1.509-6.93c0.004-0.817-0.059-1.637-0.391-2.4
				c-0.317-0.73-0.852-0.849-1.47-0.347c-0.329,0.268-0.581,0.602-0.791,0.968c-1.625,2.835-2.303,5.89-2.086,9.145
				c0.037,0.549,0.134,1.098,0.437,1.579c0.2,0.318,0.463,0.576,0.869,0.414c0.75-0.3,1.144-0.919,1.496-1.654
				c-0.34-0.019-0.379,0.198-0.502,0.31c-0.193,0.176-0.358,0.417-0.671,0.323c-0.291-0.088-0.4-0.346-0.449-0.607
				c-0.064-0.345-0.122-0.7-0.114-1.049c0.053-2.476,0.556-4.855,1.593-7.111c0.119-0.259,0.269-0.506,0.426-0.745
				c0.196-0.299,0.418-0.614,0.837-0.52c0.431,0.097,0.453,0.507,0.509,0.844C103.719,97.654,103.727,98.12,103.664,98.582z
				 M81.845,99.371c-0.65,0.596-0.905,1.382-1.078,2.213c-0.519,2.494,1.197,4.994,3.69,5.413c1.403,0.236,2.697-0.205,4.011-0.548
				c3.336-0.872,6.681-1.602,10.132-0.661c0.371,0.101,0.335-0.09,0.324-0.332c-0.026-0.571-0.125-1.134-0.081-1.713
				c0.18-2.347,0.662-4.615,1.691-6.746c0.234-0.485-0.127-0.238-0.289-0.234c-1.261,0.063-2.471,0.411-3.691,0.69
				c-0.376,0.086-0.376,0.456-0.442,0.745c-0.078,0.343,0.237,0.237,0.392,0.29c0.858,0.297,1.122,1.108,0.589,1.844
				c-0.297,0.411-0.713,0.648-1.188,0.79c-0.84,0.251-1.603-0.025-1.861-0.67c-0.244-0.611,0.091-1.344,0.875-1.706
				c0.433-0.2,0.583-0.465,0.551-0.951c-0.895,0.161-1.705,0.492-2.514,0.809c-0.36,0.141-0.286,0.552-0.356,0.862
				c-0.072,0.319,0.182,0.333,0.376,0.424c0.739,0.348,0.969,1.082,0.554,1.757c-0.284,0.462-0.723,0.703-1.24,0.798
				c-0.728,0.133-1.304-0.145-1.541-0.721c-0.243-0.592-0.024-1.285,0.633-1.625c0.494-0.256,0.576-0.592,0.484-1.13
				c-0.868,0.389-1.704,0.779-2.553,1.137c-0.371,0.156-0.354,0.467-0.387,0.766c-0.043,0.382,0.3,0.246,0.466,0.308
				c0.838,0.315,1.09,1.151,0.54,1.862c-0.268,0.347-0.627,0.544-1.048,0.644c-0.681,0.161-1.282-0.061-1.544-0.577
				c-0.271-0.532-0.139-1.173,0.454-1.562c0.462-0.303,0.483-0.653,0.422-1.097c-0.41-0.024-0.721,0.381-1.145,0.201
				c0.035-0.082,0.041-0.141,0.068-0.154c1.207-0.576,2.417-1.147,3.625-1.722c0.507-0.241,0.96-0.912,0.815-1.234
				c-0.28-0.623-0.582-1.236-0.875-1.853c-0.164-0.344-0.371-0.419-0.729-0.211c-2.131,1.242-4.277,2.458-6.41,3.697
				c-0.645,0.375-1.145,0.904-1.383,1.628c-0.14,0.425-0.146,0.79,0.224,1.196c0.635,0.698,0.939,1.585,0.975,2.543
				c0.015,0.39-0.048,0.755-0.46,0.942c-1.054-0.204-2.291-2.31-1.881-3.453c0.307-0.856,0.295-1.825,0.881-2.581
				c0.017-0.044,0.034-0.088,0.05-0.132C81.929,99.334,81.887,99.352,81.845,99.371z M93.306,67.067
				c-1.77-0.007-3.138,1.324-3.137,3.05c0.001,1.658,1.383,3.07,3.001,3.068c1.727-0.002,3.114-1.334,3.126-3.002
				C96.308,68.434,95.003,67.074,93.306,67.067z M97.933,71.067c1.111-0.001,1.428,0.052,1.751,0.516
				c0.236,0.34,0.381,0.226,0.611,0.054c1.296-0.969,1.524-2.76,0.5-3.97c-1.045-1.234-2.881-1.303-4.031-0.139
				c-0.411,0.416-0.757,0.856-0.37,1.499c0.118,0.195,0.102,0.468,0.16,0.703c0.117,0.469-0.272,1.121,0.101,1.367
				C96.977,71.31,97.585,71.088,97.933,71.067z M98.442,93.987c0.759,0.288,1.119-0.368,1.63-0.643
				c0.279-0.15,0.651-0.27,0.329-0.756c-0.149-0.225,0.049-0.564,0.263-0.69c0.65-0.383,0.417-0.845,0.198-1.333
				c-0.09-0.2-0.167-0.407-0.233-0.617c-0.107-0.342-0.25-0.453-0.605-0.23c-0.688,0.431-1.407,0.815-2.112,1.219
				c-1.188,0.681-1.188,0.681-0.604,1.953c0.073,0.16,0.138,0.323,0.21,0.484C97.699,93.786,97.794,94.332,98.442,93.987z
				 M94.959,96.048c0.869,0.071,1.655,0.095,1.746-1.014c0.005-0.058,0.054-0.132,0.105-0.163c0.555-0.341,0.354-0.75,0.119-1.17
				c-0.085-0.153-0.151-0.317-0.224-0.477c-0.631-1.371-0.625-1.362-1.893-0.514c-0.244,0.163-0.254,0.28-0.13,0.521
				C95.138,94.12,95.271,95.052,94.959,96.048z M105.833,89.328c0.328,0.013,0.803-0.482,0.75-0.747
				c-0.078-0.394,0.009-0.709,0.393-0.871c0.265-0.112,0.229-0.283,0.138-0.47c-0.197-0.405-0.191-0.906-0.571-1.218
				c-0.031-0.026-0.157,0.051-0.232,0.094c-0.668,0.378-1.335,0.757-2.002,1.138c-0.157,0.089-0.309,0.182-0.216,0.408
				c0.191,0.466,0.283,1.019,0.599,1.372C104.939,89.307,105.556,88.902,105.833,89.328z M102.928,91.385
				c0.228-0.178,0.653-0.268,0.553-0.511c-0.208-0.506,0.02-0.795,0.322-1.096c0.149-0.149,0.152-0.286,0.076-0.471
				c-0.158-0.385-0.302-0.776-0.433-1.171c-0.07-0.213-0.147-0.294-0.369-0.162c-0.621,0.37-1.25,0.726-1.876,1.086
				c-0.1,0.057-0.208,0.138-0.162,0.253c0.227,0.569,0.386,1.194,0.739,1.674C101.994,91.282,102.643,90.895,102.928,91.385z
				 M95.311,98.92c-0.711,0.213-1.145,0.772-1.039,1.315c0.099,0.507,0.664,0.781,1.398,0.655c0.213-0.037,0.426-0.115,0.618-0.214
				c0.408-0.211,0.703-0.536,0.782-1.001c0.079-0.465-0.281-0.924-0.726-0.92c-0.549,0.005-0.225,0.451-0.316,0.688
				c-0.015,0.039-0.002,0.088-0.008,0.131c-0.023,0.171-0.006,0.383-0.257,0.383c-0.201,0-0.325-0.143-0.363-0.327
				C95.352,99.399,95.339,99.16,95.311,98.92z M92.57,100.797c-0.071,0.112,0.221,0.503-0.17,0.561
				c-0.349,0.051-0.432-0.3-0.491-0.589c-0.013-0.065-0.035-0.129-0.04-0.194c-0.036-0.469-0.256-0.357-0.5-0.16
				c-0.44,0.354-0.557,1.03-0.248,1.417c0.385,0.481,1.302,0.498,1.861,0.034c0.476-0.395,0.6-1.076,0.254-1.46
				c-0.147-0.163-0.344-0.357-0.559-0.26C92.47,100.24,92.622,100.503,92.57,100.797z M102.233,81.049
				c0.079,0.312-0.195,0.78,0.149,0.906c0.411,0.151,0.908,0.079,1.368,0.08c0.153,0,0.137-0.141,0.094-0.247
				c-0.311-0.77-0.626-1.538-0.939-2.307c-0.069-0.17-0.225-0.223-0.375-0.22c-0.257,0.004-0.138,0.226-0.153,0.351
				C102.319,80.09,102.279,80.571,102.233,81.049z M88.152,101.643c-0.632,0.452-0.811,0.932-0.546,1.353
				c0.258,0.41,0.928,0.586,1.492,0.345c0.52-0.221,0.9-0.596,0.833-1.213c-0.051-0.465-0.438-0.731-0.835-0.688
				c-0.448,0.048-0.133,0.445-0.138,0.692c-0.001,0.065,0.02,0.131,0.022,0.197c0.005,0.162-0.022,0.323-0.199,0.375
				c-0.217,0.064-0.333-0.084-0.394-0.259C88.3,102.197,88.238,101.942,88.152,101.643z M87.615,95.382
				c0.093,0.006,0.144,0.025,0.173,0.008c0.439-0.25,0.875-0.506,1.313-0.759c0.72-0.416,0.756-0.823,0.11-1.393
				c-0.222-0.196-0.463-0.372-0.758-0.607C88.265,93.615,88.048,94.508,87.615,95.382z M92.072,81.599
				c0.007,0.513,0.422,0.892,0.959,0.859c0.522-0.032,0.798-0.352,0.842-0.844c0.045-0.513-0.378-0.921-0.891-0.916
				C92.421,80.703,92.064,81.056,92.072,81.599z M98.074,81.003c0.002-0.513-0.409-0.932-0.913-0.915
				c-0.513,0.018-0.829,0.292-0.875,0.801c-0.047,0.523,0.362,0.984,0.836,1.005C97.618,81.917,98.072,81.491,98.074,81.003z
				 M95.156,80.566c-0.501,0.004-0.87,0.379-0.866,0.877c0.004,0.512,0.415,0.907,0.933,0.896c0.481-0.011,0.882-0.417,0.873-0.885
				C96.084,80.929,95.695,80.561,95.156,80.566z M91.026,80.271c-0.485,0.005-0.817,0.331-0.83,0.783
				c-0.013,0.458,0.357,0.865,0.81,0.842c0.503-0.026,0.815-0.292,0.817-0.824C91.826,80.527,91.497,80.302,91.026,80.271z
				 M94.395,96.422c-0.172-0.084-0.34-0.119-0.452-0.01c-0.311,0.302-0.666,0.366-1.085,0.336c-0.172-0.012-0.357,0.132-0.532,0.215
				c-0.107,0.051-0.288,0.066-0.212,0.254c0.047,0.116,0.139,0.3,0.215,0.302c0.393,0.009,0.766,0.113,1.147,0.176
				c0.106,0.017,0.225-0.068,0.232-0.19C93.734,97.02,94.12,96.76,94.395,96.422z M81.435,103.552
				c0.38,0.626,0.578,1.153,1.038,1.502c0.206,0.156,0.484,0.275,0.563-0.086c0.107-0.495,0.16-1.017-0.26-1.522
				C82.468,104.347,82.005,103.862,81.435,103.552z M99.099,80.501c-0.067-0.456-0.278-0.783-0.791-0.779
				c-0.142,0.001-0.336,0.051-0.414,0.151c-0.138,0.175,0.099,0.249,0.186,0.352c0.18,0.213,0.271,0.461,0.273,0.725
				c0.004,0.453,0.211,0.338,0.438,0.178C99.002,80.98,99.115,80.775,99.099,80.501z M103.664,87.673
				c0.115,0.841,0.58,1.589,0.693,2.431C104.639,89.842,104.318,88.569,103.664,87.673z M102.337,82.443
				c0.431,0.357,0.909,0.271,1.512,0.194C103.299,82.311,102.83,82.282,102.337,82.443z M103.88,95.88
				c0.229,0.586,0.146,1.222,1.065,1.16C104.54,96.698,104.525,96.138,103.88,95.88z M101.124,91.854
				c-0.252,0.201-0.567,0.462-0.396,0.69c0.226,0.301,0.617,0.153,0.974-0.065C101.411,92.339,101.235,92.135,101.124,91.854z
				 M107.508,87.257c-0.032-0.54-0.162-1.048-0.537-1.464C106.988,86.336,107.256,86.793,107.508,87.257z M82.407,103.201
				c0-0.145-0.23-0.258-0.459-0.305c-0.141-0.029-0.212,0.152-0.178,0.284c0.06,0.241,0.195,0.452,0.469,0.468
				C82.414,103.659,82.414,103.495,82.407,103.201z M95.126,96.44c0.407,0.018,0.057,0.606,0.496,0.542
				c0.198-0.029,0.339-0.285,0.256-0.471C95.734,96.189,95.439,96.36,95.126,96.44z M99.445,96.516
				c-0.493-0.096-0.948,0.081-1.61,0.19C98.523,96.823,98.971,96.578,99.445,96.516z M94.465,96.8
				c-0.202,0.183-0.438,0.329-0.415,0.663C94.531,97.428,94.809,97.307,94.465,96.8z M94.523,91.918
				c0.351-0.144,0.726-0.235,1.042-0.624C95.052,91.351,94.767,91.609,94.523,91.918z"/>
			<path fill="#FDFDFD" d="M80.423,103.245c0.206,0.172,0.169,0.439,0.238,0.66c0.804,2.572,2.831,3.832,5.539,3.395
				c0.728-0.117,1.443-0.314,2.276-0.499c-0.326,0.658,0.038,0.962,0.463,1.285c0.791,0.603,1.682,1.002,2.587,1.383
				c-3.555,0-7.111-0.006-10.666,0.009c-0.346,0.001-0.455-0.042-0.449-0.429C80.437,107.115,80.423,105.18,80.423,103.245z"/>
			<path fill="#FCD921" d="M92.845,94.915c-0.173-0.167-0.084-0.55-0.513-0.568c0.113,0.436,0.297,0.83,0.324,1.261
				c0.016,0.266,0.032,0.529-0.075,0.78c-0.097,0.227-0.292,0.333-0.522,0.335c-0.213,0.002-0.288-0.184-0.333-0.356
				c-0.219-0.835-0.892-1.361-1.329-2.027c-1.028-1.563-2.58-2.608-3.63-4.129c-0.968-1.402-1.259-2.763-0.38-4.299
				c0.426-0.744,0.799-1.517,1.345-2.186c0.119-0.147,0.316-0.265,0.216-0.507c0.095-0.113,0.189-0.227,0.284-0.34
				c0.63-0.015,0.882-0.595,1.318-0.899c0.27-0.188,0.434-0.441,0.777-0.034c0.284,0.338,0.744,0.307,1.159,0.132
				c0.138-0.058,0.229-0.209,0.429,0.014c0.843,0.942,1.403,0.918,2.186-0.029c0.86,0.781,1.26,0.786,2.094-0.016
				c0.152-0.146,0.24-0.12,0.387-0.031c0.296,0.178,0.61,0.24,0.938,0.081c0.139,0.52,0.229,1.048,0.258,1.585
				c-1.592,0.102-3.197,0.132-4.757,0.49c-1.865,0.428-2.903,1.831-3.746,3.41c-0.205,0.384,0.231,0.568,0.351,0.852
				c0.017,0.039,0.035,0.079,0.053,0.119c0,0,0.001-0.026,0.001-0.026c0.319,0.976,0.998,1.608,1.917,2.011l0.044,0.009
				c0,0,0.012,0.043,0.012,0.043c0.011,0.097,0.03,0.188,0.151,0.204c0,0-0.009-0.012-0.009-0.012
				c-0.009,0.103,0.043,0.146,0.141,0.14c0,0-0.008-0.008-0.008-0.008c0.698,1.009,1.693,1.734,2.511,2.627
				c0.406,0.533,0.432,1.15,0.4,1.784c-0.012,0.231-0.07,0.434-0.253,0.584c-0.119,0.097-0.249,0.208-0.414,0.142
				c-0.203-0.081-0.107-0.262-0.093-0.401c0.06-0.62-0.034-1.2-0.416-1.823c-0.148,0.376,0.028,0.616,0.075,0.867
				c0.114,0.613,0.159,1.209-0.363,1.684C93.607,95.744,93.362,95.28,92.845,94.915z"/>
			<path fill="#FCD921" d="M102.014,75.007c-1.719,1.078-3.648,1.482-5.618,1.738c-1.338,0.174-2.676,0.149-4.003-0.118
				c-0.838-0.168-0.837-0.176-0.416-0.903c-0.689,0.127-0.902,0.93-0.333,1.658c-0.137-0.652,0.098-0.619,0.546-0.514
				c1.805,0.42,3.623,0.301,5.436,0.003c0.194-0.032,0.457-0.251,0.583,0.037c0.129,0.297,0.063,0.632-0.224,0.829
				c-0.281,0.194-0.601,0.331-0.961,0.524c0.67,0.277,0.383,0.897,0.558,1.346c0.03,0.075-0.054,0.164-0.151,0.18
				c-0.086,0.014-0.175,0.017-0.262,0.016c-0.524-0.005-0.766,0.475-1.138,0.653c-0.304,0.146-0.938-0.421-1.264-0.091
				c-0.569,0.575-1.008,0.394-1.536,0.045c-0.093-0.061-0.287-0.067-0.383-0.011c-0.564,0.327-0.972,0.125-1.321-0.342
				c0.05-0.142,0.114-0.27,0.086-0.438c-0.164-0.981-0.563-1.871-1.034-2.734c-0.106-0.194-0.238-0.37-0.49-0.384
				c0.035-0.245-0.027-0.353-0.261-0.17c-0.133,0.104-0.252,0.226-0.377,0.339c-0.273-0.337,0.092-0.502,0.198-0.737
				c-0.104-0.589-0.556-0.828-1.038-1.037c-0.06-0.01-0.121-0.02-0.181-0.03c-0.14-0.014-0.279-0.028-0.419-0.042
				c-0.108-0.048-0.306,0.311-0.339-0.076c0.467-0.89,0.978-0.994,2.127-0.429c-0.141-0.55-0.752-0.797-1.448-0.585
				c-0.859,0.261-1.327,1.333-1,2.29c0.303,0.888,1.214,1.354,2.057,0.991c0.32-0.138,0.432-0.114,0.584,0.193
				c0.511,1.031,0.414,1.322-0.665,1.762c-0.183,0.074-0.381,0.111-0.562,0.189c-0.489,0.209-0.785,0.077-0.908-0.456
				c-0.038-0.167-0.156-0.315-0.221-0.478c-0.258-0.646-0.715-0.881-1.402-0.755c-0.542,0.099-1.093,0.073-1.644,0.001
				c-0.374-0.049-0.491-0.22-0.405-0.578c0.108-0.449,0.168-0.913,0.305-1.353c0.2-0.644,0.01-1.103-0.531-1.475
				c-0.743-0.511-1.46-1.061-2.209-1.564c-0.371-0.249-0.34-0.45-0.083-0.764c0.516-0.63,0.964-1.318,1.501-1.929
				c0.404-0.459,0.412-0.865,0.116-1.363c-0.472-0.794-0.902-1.614-1.37-2.41c-0.233-0.396-0.161-0.637,0.262-0.822
				c0.785-0.344,1.553-0.727,2.339-1.067c0.523-0.226,0.769-0.543,0.723-1.16c-0.07-0.921-0.032-1.851-0.04-2.776
				c-0.005-0.579,0.251-0.83,0.855-0.776c1.176,0.104,2.301,0.504,3.488,0.558c0.363,0.017,0.559-0.078,0.748-0.37
				c0.527-0.812,1.062-1.621,1.636-2.4c0.411-0.559,0.611-0.544,1.065-0.054c0.42,0.921,0.94,1.787,1.455,2.656
				c0.235,0.396,0.506,0.535,0.975,0.397c1.009-0.296,2.035-0.534,3.052-0.806c0.443-0.119,0.653-0.009,0.638,0.494
				c-0.027,0.878,0.001,1.759-0.024,2.637c-0.014,0.495,0.182,0.777,0.656,0.918c1.05,0.314,2.084,0.689,3.143,0.966
				c0.529,0.138,0.667,0.412,0.595,0.892c-0.023,0.152-0.035,0.305-0.051,0.458c0,0,0.009-0.012,0.009-0.012
				c-0.15,0.039-0.125,0.169-0.143,0.276c0,0,0.01-0.011,0.01-0.01c-0.081,0.006-0.114,0.051-0.105,0.131
				c-0.296,0.7-0.788,1.253-1.348,1.746c-0.124,0.109-0.313,0.463-0.483,0.076c-0.094-0.213-0.592-0.39-0.131-0.744
				c0.32-0.246,0.598-0.557,0.498-1.071c-0.243,0.085-0.24,0.28-0.313,0.423c-0.296,0.584-0.534,0.642-1.091,0.287
				c-0.129-0.082-0.264-0.179-0.409-0.21c-0.409-0.089-0.484-0.332-0.447-0.716c0.027-0.281,0.048-0.603-0.188-0.848
				c-0.071,0.051-0.131,0.073-0.133,0.098c-0.021,0.37,0.196,0.793-0.021,1.094c-0.215,0.298-0.682,0.032-0.991,0.187
				c-0.729,0.365-1.307,0.349-1.64-0.519c-0.035-0.09-0.152-0.166-0.342,0.006c0.862,0.753,0.529,1.446-0.239,2.108
				c-0.291-0.344-0.713-0.616-1.075-0.941c-0.38-0.342,0.235-0.96-0.2-1.379c-0.051,0.033-0.114,0.054-0.116,0.08
				c-0.087,0.981-0.087,0.981-1.068,0.937c-0.044-0.002-0.089-0.005-0.132,0.002c-0.581,0.091-1.107,0.099-1.34-0.614
				c-0.049-0.149-0.215-0.342-0.486-0.28c0,0.056-0.024,0.132,0.004,0.166c0.614,0.77,0.616,0.769-0.145,1.286
				c-0.605,0.411-1.304,0.525-2.059,0.343c-0.052-0.013-0.117,0.024-0.177,0.038c0,0.057-0.016,0.119,0.002,0.133
				c0.319,0.227,0.75,0.301,0.969,0.658c0.236,0.382-0.184,0.687-0.169,1.054c0.008,0.197-0.062,0.401-0.034,0.592
				c0.052,0.342-0.07,0.407-0.39,0.38c-0.317-0.027-0.678-0.088-0.942,0.197c0.122,0.195,0.232,0.121,0.332,0.106
				c0.637-0.097,1.036,0.007,1.351,0.737c0.946,2.193,3.951,2.565,5.5,0.752c0.171-0.2,0.314-0.424,0.47-0.637
				c1.155-0.119,2.321-0.323,3.372,0.414c0.185,0.569-0.001,0.963-0.596,1.238c-0.56,0.259-1.152,0.222-1.744,0.179
				c-0.207-0.015-0.422-0.106-0.637,0.047c0.899,0.577,2.555,0.307,3.156-0.494c0.119-0.159,0.258-0.334,0.222-0.534
				c-0.068-0.376,0.164-0.504,0.436-0.621c0.329,0.462,0.699,0.896,1.142,1.244c0.579,0.455,0.902,0.968,0.616,1.718
				c-0.016,0.044-0.047,0.069-0.092,0.074C102.064,74.972,102.039,74.989,102.014,75.007z"/>
			<path fill="#CAA933" d="M82.922,105.483c0.412-0.187,0.475-0.552,0.46-0.942c-0.036-0.957-0.341-1.845-0.975-2.543
				c-0.369-0.406-0.363-0.771-0.224-1.196c0.238-0.725,0.737-1.254,1.383-1.628c2.133-1.239,4.279-2.455,6.41-3.697
				c0.358-0.208,0.566-0.133,0.729,0.211c0.294,0.617,0.595,1.23,0.875,1.853c0.145,0.322-0.308,0.992-0.815,1.234
				c-1.208,0.575-2.418,1.146-3.625,1.722c-0.028,0.013-0.033,0.072-0.068,0.154c0.424,0.18,0.736-0.225,1.145-0.201
				c0.061,0.444,0.04,0.794-0.422,1.097c-0.593,0.389-0.725,1.03-0.454,1.562c0.263,0.516,0.863,0.738,1.544,0.577
				c0.421-0.1,0.78-0.297,1.048-0.644c0.55-0.712,0.298-1.548-0.54-1.862c-0.166-0.062-0.509,0.074-0.466-0.308
				c0.033-0.299,0.016-0.609,0.387-0.766c0.849-0.358,1.684-0.748,2.553-1.137c0.092,0.539,0.01,0.874-0.484,1.13
				c-0.658,0.34-0.876,1.034-0.633,1.625c0.236,0.575,0.812,0.854,1.541,0.721c0.517-0.094,0.956-0.336,1.24-0.798
				c0.415-0.674,0.185-1.409-0.554-1.757c-0.194-0.091-0.448-0.105-0.376-0.424c0.07-0.31-0.004-0.722,0.356-0.862
				c0.81-0.316,1.62-0.648,2.514-0.809c0.032,0.486-0.118,0.752-0.551,0.951c-0.784,0.361-1.119,1.095-0.875,1.706
				c0.258,0.645,1.021,0.921,1.861,0.67c0.475-0.142,0.891-0.379,1.188-0.79c0.533-0.736,0.269-1.548-0.589-1.844
				c-0.155-0.053-0.47,0.053-0.392-0.29c0.066-0.289,0.066-0.659,0.442-0.745c1.221-0.279,2.43-0.627,3.691-0.69
				c-1.209,2.134-2.338,4.297-2.371,6.838c-0.004,0.288-0.07,0.473-0.404,0.449c-0.617-0.045-1.225,0.081-1.837,0.113
				c-1.979,0.106-3.903,0.542-5.826,0.965c-1.499,0.33-2.964,0.819-4.47,1.103C84.471,106.394,83.456,106.596,82.922,105.483z"/>
			<path fill="#ED4433" d="M99.478,88.449c-1.745,1.057-3.496,2.104-5.229,3.181c-0.347,0.215-0.577,0.166-0.866-0.073
				c-0.472-0.392-0.977-0.743-1.455-1.128c-0.166-0.134-0.323-0.219-0.536-0.161c-0.09-0.086-0.18-0.171-0.269-0.257
				c-0.036-0.592-0.356-0.93-0.929-1.042l-0.001,0.028c0.238-0.375-0.132-0.531-0.299-0.714c-0.333-0.364-0.365-0.677-0.094-1.102
				c0.624-0.979,1.441-1.759,2.352-2.457c0.205-0.157,0.444-0.189,0.675-0.231c1.88-0.343,3.774-0.532,5.688-0.468
				C98.697,85.53,98.983,87.012,99.478,88.449z"/>
			<path fill="#FDFDFD" d="M93.306,67.067c1.697,0.006,3.002,1.366,2.99,3.116c-0.012,1.668-1.399,3-3.126,3.002
				c-1.618,0.002-2.999-1.41-3.001-3.068C90.168,68.391,91.536,67.061,93.306,67.067z M92.898,71.07
				c0.276-0.054,0.423-0.249,0.394-0.545c-0.031-0.313-0.249-0.438-0.547-0.418c-0.303,0.02-0.407,0.238-0.396,0.494
				C92.363,70.908,92.567,71.052,92.898,71.07z"/>
			<path fill="#CAA933" d="M103.299,83.105c0.429,0.431,0.387,1.387-0.097,2.049c0.288,0.169,0.452-0.093,0.632-0.202
				c2.128-1.289,4.245-2.597,6.373-3.888c0.861-0.522,1.762-0.665,2.697-0.174c0.898,0.472,1.277,1.458,0.932,2.409
				c-0.437,1.202-1.538,1.707-2.475,2.385c-0.169,0.122-0.29-0.016-0.414-0.091c-0.233-0.141-0.481-0.216-0.751-0.219
				c-0.308-0.003-0.64-0.042-0.83,0.275c-0.197,0.329-0.206,0.668,0.039,0.989c0.051,0.066,0.127,0.126,0.042,0.253
				c-0.466-0.09-0.945-0.31-1.445-0.077c-0.161,0.075-0.225-0.059-0.295-0.178c-0.473-0.796-0.421-1.072,0.399-1.524
				c0.461-0.254,0.618-0.568,0.34-1.012c-0.338-0.542-0.159-0.83,0.361-1.115c0.713-0.39,1.388-0.853,2.067-1.304
				c0.451-0.3,0.987-0.389,1.477-0.599c-0.591-0.194-1.083,0.034-1.551,0.312c-0.492,0.292-0.962,0.622-1.446,0.927
				c-0.349,0.22-0.68,0.467-1.148,0.384c-0.242-0.043-0.525,0.089-0.633,0.295c-0.524,0.995-1.58,1.275-2.407,1.861
				c-0.215,0.01-0.441,0.001-0.477,0.298c0,0-0.034,0.022-0.034,0.022c-0.269-0.129-0.451,0.085-0.661,0.174
				c-0.592,0.249-1.131,0.624-1.805,0.76c0.547-0.625,0.939-1.299,0.975-2.141C103.173,83.685,103.038,83.36,103.299,83.105z"/>
			<path fill="#877421" d="M82.922,105.483c0.535,1.113,1.549,0.911,2.416,0.747c1.506-0.284,2.971-0.773,4.47-1.103
				c1.923-0.423,3.848-0.859,5.826-0.965c0.612-0.033,1.22-0.159,1.837-0.113c0.333,0.024,0.4-0.161,0.404-0.449
				c0.033-2.542,1.162-4.704,2.371-6.838c0.162-0.003,0.523-0.251,0.289,0.234c-1.029,2.132-1.511,4.399-1.691,6.746
				c-0.044,0.579,0.055,1.142,0.081,1.713c0.011,0.242,0.046,0.433-0.324,0.332c-3.451-0.94-6.797-0.21-10.132,0.661
				c-1.314,0.343-2.609,0.784-4.011,0.548c-2.493-0.419-4.209-2.919-3.69-5.413c0.173-0.832,0.429-1.617,1.078-2.213
				c0.026,0.026,0.051,0.052,0.078,0.078c-0.586,0.756-0.574,1.725-0.881,2.581C80.631,103.173,81.868,105.279,82.922,105.483z"/>
			<path fill="#CAA933" d="M103.664,98.582c0.063-0.463,0.055-0.928-0.022-1.385c-0.056-0.337-0.078-0.747-0.509-0.844
				c-0.419-0.094-0.641,0.221-0.837,0.52c-0.157,0.239-0.307,0.486-0.426,0.745c-1.036,2.256-1.54,4.635-1.593,7.111
				c-0.007,0.349,0.05,0.704,0.114,1.049c0.049,0.261,0.157,0.519,0.449,0.607c0.313,0.094,0.478-0.147,0.671-0.323
				c0.123-0.112,0.162-0.329,0.502-0.31c-0.352,0.735-0.746,1.354-1.496,1.654c-0.406,0.162-0.669-0.096-0.869-0.414
				c-0.303-0.481-0.401-1.031-0.437-1.579c-0.217-3.255,0.462-6.31,2.086-9.145c0.21-0.366,0.461-0.7,0.791-0.968
				c0.617-0.502,1.153-0.384,1.47,0.347c0.331,0.764,0.395,1.583,0.391,2.4c-0.013,2.415-0.552,4.72-1.509,6.93
				c-0.081,0.186-0.114,0.428-0.497,0.585c0.246-0.61,0.468-1.108,0.642-1.623c0.059-0.174,0.355-0.45-0.086-0.575
				C103.049,101.81,103.26,100.172,103.664,98.582z"/>
			<path fill="#FDFDFD" d="M97.933,71.067c-0.348,0.021-0.955,0.243-1.277,0.03c-0.373-0.246,0.016-0.898-0.101-1.367
				c-0.059-0.234-0.043-0.507-0.16-0.703c-0.387-0.643-0.041-1.083,0.37-1.499c1.15-1.165,2.986-1.096,4.031,0.139
				c1.024,1.21,0.796,3-0.5,3.97c-0.23,0.172-0.375,0.286-0.611-0.054C99.361,71.118,99.044,71.065,97.933,71.067z M99.436,69.079
				c-0.307,0.033-0.49,0.211-0.454,0.518c0.035,0.3,0.247,0.46,0.557,0.431c0.286-0.027,0.433-0.219,0.427-0.49
				C99.958,69.219,99.747,69.084,99.436,69.079z"/>
			<path fill="#877421" d="M103.664,98.582c-0.404,1.59-0.615,3.228-1.166,4.782c-0.266,0.77-0.55,1.533-0.98,2.228
				c-0.134,0.216-0.291,0.524-0.577,0.471c-0.31-0.058-0.292-0.401-0.308-0.661c-0.185-2.856,0.492-5.532,1.72-8.085
				c0.138-0.288,0.335-0.7,0.671-0.637c0.41,0.077,0.267,0.58,0.387,0.891C103.537,97.9,103.144,98.358,103.664,98.582z"/>
			<path fill="#FDFDFD" d="M103.426,65.781c0.017-0.153,0.029-0.306,0.051-0.458c0.072-0.48-0.066-0.754-0.595-0.892
				c-1.059-0.277-2.093-0.652-3.143-0.966c-0.474-0.142-0.671-0.424-0.656-0.918c0.025-0.879-0.003-1.759,0.024-2.637
				c0.016-0.502-0.194-0.612-0.638-0.494c-1.016,0.272-2.042,0.51-3.052,0.806c-0.469,0.137-0.74-0.001-0.975-0.397
				c-0.515-0.869-1.035-1.735-1.455-2.656c0.886,0.496,1.487,1.343,2.331,1.898c0.305,0.201,0.567,0.27,0.911,0.194
				c1.07-0.236,2.151-0.427,3.214-0.69c0.536-0.133,0.64,0.071,0.677,0.542c0.082,1.05,0.09,2.107,0.301,3.148
				c0.078,0.387,0.257,0.612,0.605,0.779c0.754,0.363,1.547,0.614,2.337,0.874c0.809,0.266,0.814,0.267,0.489,1.078
				C103.742,65.269,103.671,65.573,103.426,65.781z"/>
			<path fill="#CAA933" d="M98.442,93.987c-0.647,0.345-0.743-0.201-0.926-0.612c-0.071-0.161-0.136-0.324-0.21-0.484
				c-0.583-1.272-0.584-1.273,0.604-1.953c0.705-0.404,1.424-0.788,2.112-1.219c0.355-0.223,0.498-0.112,0.605,0.23
				c0.066,0.209,0.143,0.417,0.233,0.617c0.219,0.488,0.452,0.95-0.198,1.333c-0.214,0.126-0.412,0.465-0.263,0.69
				c0.322,0.486-0.05,0.606-0.329,0.756C99.561,93.618,99.2,94.275,98.442,93.987z"/>
			<path fill="#ED4433" d="M93.124,109.061c-1.025,0.344-1.945-0.018-2.83-0.47c-0.467-0.238-0.884-0.577-1.321-0.874
				c-0.234-0.159-0.358-0.332-0.273-0.661c0.113-0.436,0.309-0.108,0.473-0.101c0.249,0.011,0.286-0.247,0.441-0.354
				c0.184-0.128,0.371-0.428,0.594-0.04c0,0,0.002-0.002,0.002-0.002c-0.298,0.011-0.499,0.225-0.36,0.445
				c0.155,0.246,0.417,0.539,0.801,0.42c0.161-0.05,0.297-0.185,0.443-0.284c0.959-0.65,2.018-0.661,3.105-0.484
				c0.023,0.128,0.045,0.256,0.07,0.383c0.254,1.253,0.15,1.444-1.056,1.934C93.179,108.987,93.154,109.031,93.124,109.061z"/>
			<path fill="#ED4433" d="M102.126,94.892c-0.659,0.963-1.648,1.14-2.722,1.26c-1.063,0.119-2.105,0.42-3.186,0.647
				c-0.059-0.605,0.296-0.836,0.8-0.863c0.999-0.052,1.717-0.471,2.052-1.449c0.097-0.285,0.368-0.367,0.579-0.511
				c0.489-0.336,0.993-0.649,1.491-0.972C101.35,93.696,101.802,94.261,102.126,94.892z"/>
			<path fill="#ED4433" d="M102.953,108.026c-0.471,0.328-1.029,0.409-1.567,0.454c-1.789,0.149-3.562,0.048-5.286-0.521
				c-0.363-0.12-0.649-0.271-0.556-0.776c0.714,0.127,1.414,0.297,2.135,0.351c0.498,0.037,0.798-0.069,0.882-0.598
				c0.041-0.258,0.146-0.501,0.406-0.763c0.126,0.297,0.234,0.545,0.338,0.794c0.172,0.411,0.443,0.782,0.904,0.755
				c0.51-0.031,1.017-0.2,1.347-0.661c0.127-0.177,0.246-0.36,0.368-0.541C102.358,106.959,102.881,107.338,102.953,108.026z"/>
			<path fill="#CAA933" d="M94.959,96.048c0.313-0.996,0.18-1.928-0.277-2.816c-0.124-0.241-0.114-0.358,0.13-0.521
				c1.268-0.848,1.262-0.857,1.893,0.514c0.073,0.16,0.139,0.324,0.224,0.477c0.235,0.42,0.436,0.829-0.119,1.17
				c-0.051,0.031-0.1,0.105-0.105,0.163C96.614,96.143,95.828,96.119,94.959,96.048z"/>
			<path fill="#CAA933" d="M105.833,89.328c-0.277-0.426-0.894-0.021-1.139-0.295c-0.316-0.353-0.408-0.906-0.599-1.372
				c-0.093-0.226,0.059-0.319,0.216-0.408c0.667-0.38,1.334-0.76,2.002-1.138c0.075-0.042,0.201-0.119,0.232-0.094
				c0.379,0.313,0.373,0.814,0.571,1.218c0.091,0.187,0.127,0.359-0.138,0.47c-0.385,0.162-0.472,0.477-0.393,0.871
				C106.636,88.845,106.161,89.341,105.833,89.328z"/>
			<path fill="#CAA933" d="M102.928,91.385c-0.285-0.49-0.934-0.104-1.151-0.398c-0.353-0.48-0.512-1.105-0.739-1.674
				c-0.046-0.115,0.062-0.195,0.162-0.253c0.626-0.36,1.256-0.716,1.876-1.086c0.222-0.133,0.299-0.051,0.369,0.162
				c0.13,0.395,0.275,0.786,0.433,1.171c0.076,0.185,0.073,0.323-0.076,0.471c-0.302,0.301-0.53,0.59-0.322,1.096
				C103.581,91.118,103.156,91.208,102.928,91.385z"/>
			<path fill="#CAA933" d="M96.512,90.623c3.347-2.066,6.695-4.132,10.042-6.198c0.224-0.139,0.452-0.273,0.67-0.42
				c0.173-0.117,0.276-0.063,0.364,0.104c0.077,0.146,0.139,0.282-0.044,0.396c-0.056,0.035-0.111,0.071-0.168,0.104
				c-3.587,2.05-7.174,4.1-10.762,6.149C96.58,90.712,96.546,90.668,96.512,90.623z"/>
			<path fill="#877421" d="M103.299,83.105c-0.261,0.255-0.126,0.58-0.138,0.871c-0.035,0.842-0.427,1.516-0.975,2.141
				c0.674-0.136,1.213-0.511,1.805-0.76c0.21-0.089,0.393-0.302,0.661-0.174c-1.243,0.94-2.633,1.648-4.022,2.443
				c0.227-0.355,0.434-0.726,0.686-1.062c0.688-0.917,1.156-1.928,1.263-3.072C102.634,82.923,102.864,82.869,103.299,83.105z"/>
			<path fill="#877421" d="M95.311,98.92c0.028,0.24,0.042,0.479,0.089,0.711c0.038,0.184,0.162,0.327,0.363,0.327
				c0.251,0,0.235-0.213,0.257-0.383c0.006-0.043-0.007-0.092,0.008-0.131c0.091-0.238-0.232-0.683,0.316-0.688
				c0.445-0.004,0.805,0.455,0.726,0.92c-0.079,0.465-0.375,0.79-0.782,1.001c-0.192,0.099-0.406,0.177-0.618,0.214
				c-0.734,0.126-1.299-0.149-1.398-0.655C94.166,99.692,94.6,99.133,95.311,98.92z"/>
			<path fill="#CAA933" d="M99.478,88.449c-0.495-1.437-0.781-2.92-0.962-4.425c0.531-0.128,0.78,0.088,0.904,0.62
				c0.188,0.806,0.453,1.594,0.689,2.388C100.374,87.929,100.353,87.98,99.478,88.449z"/>
			<path fill="#FCD921" d="M101.451,85.782c-0.132,0.224-0.257,0.453-0.4,0.671c-0.164,0.25-0.344,0.489-0.575,0.814
				c-0.303-1.016-0.547-1.956-0.866-2.869c-0.237-0.679-0.857-1.179-0.943-1.947c-0.016-0.139-0.176-0.046-0.267,0.005
				c-0.094-0.23-0.188-0.46-0.282-0.69c0.021-0.093,0.064-0.164,0.17-0.171c0.444,0.312,0.722,0.759,0.996,1.213
				C99.92,83.863,100.487,84.968,101.451,85.782z"/>
			<path fill="#877421" d="M92.57,100.797c0.052-0.294-0.1-0.557,0.108-0.65c0.215-0.097,0.413,0.097,0.559,0.26
				c0.346,0.384,0.221,1.065-0.254,1.46c-0.559,0.464-1.476,0.447-1.861-0.034c-0.31-0.387-0.193-1.063,0.248-1.417
				c0.245-0.197,0.465-0.309,0.5,0.16c0.005,0.065,0.026,0.129,0.04,0.194c0.059,0.289,0.142,0.64,0.491,0.589
				C92.79,101.301,92.499,100.91,92.57,100.797z"/>
			<path fill="#877421" d="M102.233,81.049c0.046-0.478,0.086-0.959,0.144-1.438c0.015-0.125-0.104-0.347,0.153-0.351
				c0.149-0.002,0.306,0.05,0.375,0.22c0.313,0.769,0.628,1.538,0.939,2.307c0.043,0.106,0.059,0.248-0.094,0.247
				c-0.46-0.001-0.957,0.071-1.368-0.08C102.038,81.829,102.312,81.361,102.233,81.049z"/>
			<path fill="#877421" d="M88.152,101.643c0.086,0.299,0.148,0.554,0.235,0.801c0.061,0.175,0.177,0.323,0.394,0.259
				c0.178-0.052,0.204-0.213,0.199-0.375c-0.002-0.066-0.023-0.131-0.022-0.197c0.004-0.247-0.31-0.643,0.138-0.692
				c0.396-0.043,0.784,0.223,0.835,0.688c0.067,0.617-0.313,0.992-0.833,1.213c-0.564,0.241-1.234,0.065-1.492-0.345
				C87.341,102.575,87.52,102.095,88.152,101.643z"/>
			<path fill="#CAA933" d="M102.126,94.892c-0.324-0.632-0.776-1.196-0.987-1.887c0.124-0.039,0.273-0.046,0.368-0.121
				c0.72-0.57,0.986-0.125,1.252,0.5c0.229,0.538,0.552,1.037,0.937,1.744C103.098,94.723,102.618,94.657,102.126,94.892z"/>
			<path fill="#CAA933" d="M98.288,106.717c-0.013,0.413-0.205,0.565-0.629,0.518c-0.63-0.069-1.25-0.176-1.868-0.314
				c-0.545-0.122-0.401-0.527-0.405-0.882c-0.005-0.434,0.291-0.408,0.584-0.393c0.325,0.017,0.656-0.013,0.967,0.124
				c0.009,0.562,0.017,1.119,0.856,0.818C97.97,106.525,98.129,106.649,98.288,106.717z"/>
			<path fill="#ED4433" d="M87.615,95.382c0.432-0.875,0.65-1.767,0.838-2.751c0.295,0.235,0.535,0.411,0.758,0.607
				c0.646,0.57,0.61,0.977-0.11,1.393c-0.438,0.253-0.874,0.509-1.313,0.759C87.759,95.407,87.709,95.388,87.615,95.382z"/>
			<path fill="#FDFDFD" d="M92.072,81.599c-0.008-0.543,0.349-0.896,0.91-0.901c0.513-0.005,0.936,0.404,0.891,0.916
				c-0.043,0.492-0.32,0.812-0.842,0.844C92.493,82.491,92.079,82.111,92.072,81.599z"/>
			<path fill="#FDFDFD" d="M98.074,81.003c-0.002,0.488-0.457,0.914-0.952,0.892c-0.475-0.021-0.883-0.482-0.836-1.005
				c0.046-0.51,0.362-0.784,0.875-0.801C97.665,80.071,98.076,80.491,98.074,81.003z"/>
			<path fill="#FDFDFD" d="M95.156,80.566c0.539-0.005,0.928,0.363,0.939,0.888c0.009,0.468-0.392,0.874-0.873,0.885
				c-0.518,0.011-0.929-0.383-0.933-0.896C94.286,80.945,94.655,80.57,95.156,80.566z"/>
			<path fill="#FDFDFD" d="M101.451,85.782c-0.964-0.814-1.531-1.919-2.167-2.974c-0.274-0.453-0.552-0.901-0.996-1.213
				c0.466-0.182,0.728,0.103,0.994,0.418c0.814,0.964,1.278,2.148,2,3.17C101.395,85.345,101.732,85.491,101.451,85.782z"/>
			<path fill="#CAA933" d="M89.647,75.934c-0.105,0.235-0.471,0.4-0.198,0.737c-0.528,0.337-1.018,0.224-1.438-0.178
				c-0.509-0.489-0.611-1.087-0.342-1.743c0.033,0.387,0.231,0.027,0.339,0.076c0.361,0.299,0.484,0.756,0.667,1.24
				c0.23-0.303-0.04-0.531,0.136-0.708C89.246,75.324,89.181,76.009,89.647,75.934z"/>
			<path fill="#FDFDFD" d="M91.026,80.271c0.472,0.031,0.8,0.255,0.798,0.801c-0.003,0.532-0.314,0.799-0.817,0.824
				c-0.453,0.023-0.823-0.384-0.81-0.842C90.209,80.603,90.541,80.277,91.026,80.271z"/>
			<path fill="#877421" d="M102.698,87.826c-2.013,1.173-4.026,2.348-6.041,3.518c-0.754,0.438-1.514,0.865-2.272,1.297
				c-0.04-0.069-0.08-0.138-0.12-0.208c2.774-1.576,5.548-3.153,8.321-4.729C102.624,87.746,102.661,87.786,102.698,87.826z"/>
			<path fill="#877421" d="M82.492,99.362c0.885-0.857,2.028-1.306,3.061-1.925c1.377-0.825,2.782-1.603,4.177-2.397
				c0.198-0.113,0.379-0.292,0.807-0.226c-2.694,1.664-5.398,3.021-7.925,4.675C82.572,99.446,82.532,99.404,82.492,99.362z"/>
			<path fill="#FCD921" d="M110.067,87.882c0.122,0.475-0.145,0.59-0.538,0.569c-0.478-0.025-0.895-0.227-1.273-0.501
				c-0.207-0.149-0.511-0.31-0.412-0.608c0.085-0.257,0.372-0.347,0.657-0.323C109.07,87.221,109.558,87.57,110.067,87.882z"/>
			<path fill="#CAA933" d="M90.088,76.502c0.252,0.015,0.385,0.191,0.49,0.384c0.47,0.863,0.869,1.753,1.034,2.734
				c0.028,0.168-0.036,0.297-0.086,0.438c-0.204-0.042-0.482,0.017-0.521-0.286C90.858,78.636,90.412,77.586,90.088,76.502z"/>
			<path fill="#CAA933" d="M93.124,109.061c0.03-0.03,0.054-0.074,0.09-0.088c1.205-0.491,1.31-0.682,1.056-1.934
				c-0.026-0.127-0.047-0.255-0.07-0.383c0.695,0.177,0.911,0.513,0.975,1.472c0.039,0.59-0.457,0.641-0.814,0.777
				C93.974,109.051,93.563,109.232,93.124,109.061z"/>
			<path fill="#877421" d="M102.587,87.705c1.612-0.938,3.208-1.905,4.843-2.799c0.553-0.302,0.717-0.564,0.307-1.073
				c-0.038-0.047-0.048-0.118-0.065-0.179c-0.005-0.018,0.007-0.041,0.039-0.188c0.416,0.23,0.413,0.647,0.55,0.962
				c0.096,0.22-0.065,0.32-0.223,0.409c-1.78,0.997-3.561,1.993-5.34,2.99C102.661,87.786,102.624,87.746,102.587,87.705z"/>
			<path fill="#FCD921" d="M111.45,87.163c-0.373,0.287-0.718,0.557-1.074-0.061c-0.132-0.23-0.447-0.348-0.649-0.547
				c-0.267-0.264-0.352-0.556,0.011-0.826C110.478,86.004,111.177,86.329,111.45,87.163z"/>
			<path fill="#CAA933" d="M94.395,96.422c-0.275,0.338-0.661,0.599-0.687,1.083c-0.007,0.122-0.126,0.208-0.232,0.19
				c-0.381-0.063-0.754-0.167-1.147-0.176c-0.075-0.002-0.168-0.186-0.215-0.302c-0.075-0.187,0.106-0.203,0.212-0.254
				c0.175-0.083,0.36-0.228,0.532-0.215c0.418,0.03,0.774-0.034,1.085-0.336C94.055,96.302,94.223,96.337,94.395,96.422z"/>
			<path fill="#FDFDFD" d="M102.181,74.88c0.286-0.75-0.037-1.263-0.616-1.718c-0.443-0.348-0.813-0.782-1.142-1.244
				c0.112-0.054,0.21-0.299,0.347-0.046c0.334,0.618,0.9,0.989,1.437,1.397C102.923,73.813,102.909,74.317,102.181,74.88z"/>
			<path fill="#FDFDFD" d="M98.118,81.767c0.094,0.23,0.188,0.459,0.282,0.69c0.032,0.127,0.064,0.254,0.096,0.38
				c0.231,0.892,0.231,0.892-0.719,0.848c-0.029-0.538-0.119-1.065-0.258-1.585C97.783,82.103,97.934,81.904,98.118,81.767z"/>
			<path fill="#877421" d="M81.435,103.552c0.57,0.311,1.033,0.795,1.341-0.105c0.421,0.505,0.367,1.027,0.26,1.522
				c-0.078,0.361-0.357,0.242-0.563,0.086C82.013,104.704,81.815,104.178,81.435,103.552z"/>
			<path fill="#FCD921" d="M91.402,106.065c0.857-0.121,1.699-0.435,2.586-0.186c0.273,0.077,0.486,0.182,0.564,0.538
				c-0.94-0.271-1.856-0.275-2.766,0.014C91.659,106.31,91.53,106.188,91.402,106.065z"/>
			<path fill="#FCD921" d="M108.855,89.072c-0.583,0.168-1.106-0.036-1.618-0.275c-0.242-0.113-0.493-0.258-0.369-0.592
				c0.135-0.363,0.4-0.266,0.692-0.197c0.212,0.05,0.334,0.186,0.492,0.291c0.064,0.104,0.16,0.127,0.272,0.11
				c0,0-0.007-0.007-0.007-0.007C108.365,88.731,108.704,88.825,108.855,89.072z"/>
			<path fill="#FDFDFD" d="M94.439,93.545c-0.819-0.893-1.813-1.618-2.511-2.627C93.015,91.553,93.971,92.315,94.439,93.545z"/>
			<path fill="#FDFDFD" d="M99.099,80.501c0.016,0.274-0.097,0.478-0.308,0.627c-0.228,0.16-0.434,0.275-0.438-0.178
				c-0.002-0.264-0.093-0.513-0.273-0.725c-0.087-0.103-0.324-0.177-0.186-0.352c0.079-0.1,0.272-0.15,0.414-0.151
				C98.821,79.718,99.032,80.045,99.099,80.501z"/>
			<path fill="#FCD921" d="M98.288,106.717c-0.159-0.069-0.318-0.193-0.495-0.129c-0.839,0.301-0.847-0.256-0.856-0.818
				c0.182,0.025,0.364,0.05,0.545,0.075c0.044,0.012,0.089,0.023,0.134,0.035c0.107,0.012,0.213,0.023,0.32,0.036
				C98.493,105.989,98.725,106.205,98.288,106.717z"/>
			<path fill="#CAA933" d="M91.402,106.065c0.128,0.122,0.256,0.244,0.384,0.367c-0.304,0.172-0.607,0.344-0.911,0.515
				c-0.163,0.091-0.287,0.242-0.53,0.142c-0.324-0.133,0.044-0.391-0.134-0.529c0,0-0.002,0.002-0.002,0.002
				C90.701,106.625,90.911,106.006,91.402,106.065z"/>
			<path fill="#FDFDFD" d="M99.586,72.102c-1.051-0.736-2.217-0.532-3.372-0.414c0.537-0.382,2.548-0.461,3.041-0.114
				C99.436,71.703,99.584,71.859,99.586,72.102z"/>
			<path fill="#FDFDFD" d="M111.45,87.163c-0.274-0.834-0.972-1.158-1.712-1.434c0.788-0.13,1.402,0.133,1.708,0.769
				C111.544,86.699,111.693,86.941,111.45,87.163z"/>
			<path fill="#CAA933" d="M102.953,108.026c-0.073-0.688-0.595-1.067-1.03-1.507c0.147-0.389,0.339-0.514,0.611-0.098
				c0.204,0.313,0.428,0.617,0.591,0.951C103.24,107.603,103.326,107.893,102.953,108.026z"/>
			<path fill="#FDFDFD" d="M91.124,90.01c0.09,0.086,0.18,0.171,0.269,0.257c-0.012,0.15,0.14,0.179,0.203,0.274
				c-0.918-0.403-1.598-1.035-1.917-2.011c0.171,0.156,0.342,0.311,0.514,0.467c0,0,0.002-0.028,0.002-0.028
				C90.39,89.418,90.751,89.719,91.124,90.01z"/>
			<path fill="#CAA933" d="M92.845,94.915c0.517,0.365,0.762,0.828,0.529,1.465c-0.216,0.122-0.484,0.257-0.442-0.165
				C92.977,95.77,92.85,95.35,92.845,94.915z"/>
			<path fill="#877421" d="M103.664,87.673c0.654,0.896,0.976,2.169,0.693,2.431C104.244,89.262,103.779,88.514,103.664,87.673z"/>
			<path fill="#877421" d="M92.974,98.208c-0.538,0.285-0.619,0.803-0.647,1.329c-0.024,0.451-0.005,0.905-0.053,1.358
				c-0.3-0.764-0.111-1.534,0.013-2.292c0.052-0.319,0.402-0.362,0.693-0.388C92.981,98.215,92.974,98.208,92.974,98.208z"/>
			<path fill="#877421" d="M81.75,102.048c-0.349-1.061-0.019-1.933,0.742-2.685c0.04,0.042,0.08,0.083,0.12,0.126
				c-0.576,0.758-0.907,1.599-0.869,2.565L81.75,102.048z"/>
			<path fill="#877421" d="M104.691,90.335c0.097-0.213,0.444-0.347,0.211-0.664c-0.066-0.09-0.151-0.181,0.001-0.255
				c0.181-0.088,0.377-0.106,0.556,0.002c0.133,0.081,0.136,0.228,0.069,0.345c-0.174,0.305-0.399,0.563-0.75,0.676
				C104.749,90.404,104.72,90.369,104.691,90.335z"/>
			<path fill="#877421" d="M97.998,95.295c-0.039,0.14-0.148,0.218-0.272,0.252c-0.28,0.076-0.623,0.312-0.829-0.014
				c-0.185-0.294,0.145-0.484,0.428-0.809c-0.068,0.696,0.303,0.643,0.681,0.579L97.998,95.295z"/>
			<path fill="#877421" d="M102.337,82.443c0.493-0.162,0.961-0.132,1.512,0.194C103.246,82.714,102.769,82.8,102.337,82.443z"/>
			<path fill="#CAA933" d="M103.88,95.88c0.645,0.258,0.659,0.817,1.065,1.16C104.026,97.103,104.109,96.466,103.88,95.88z"/>
			<path fill="#877421" d="M101.124,91.854c0.111,0.28,0.288,0.485,0.577,0.624c-0.356,0.218-0.748,0.366-0.974,0.065
				C100.557,92.317,100.872,92.055,101.124,91.854z"/>
			<path fill="#FDFDFD" d="M110.067,87.882c-0.509-0.312-0.997-0.661-1.566-0.863C109.143,87.089,109.776,87.174,110.067,87.882z"/>
			<path fill="#877421" d="M107.508,87.257c-0.252-0.464-0.52-0.921-0.537-1.464C107.346,86.208,107.477,86.716,107.508,87.257z"/>
			<path fill="#877421" d="M82.407,103.201c0.007,0.294,0.007,0.458-0.168,0.447c-0.274-0.016-0.409-0.227-0.469-0.468
				c-0.033-0.132,0.037-0.314,0.178-0.284C82.177,102.943,82.408,103.057,82.407,103.201z"/>
			<path fill="#877421" d="M98.273,95.173c0.036-0.283,0.2-0.598-0.258-0.749c0.31-0.201,0.624-0.244,0.723,0.047
				c0.111,0.328-0.201,0.535-0.473,0.693C98.266,95.164,98.273,95.173,98.273,95.173z"/>
			<path fill="#877421" d="M95.126,96.44c0.313-0.079,0.608-0.251,0.752,0.072c0.083,0.186-0.058,0.442-0.256,0.471
				C95.183,97.045,95.533,96.458,95.126,96.44z"/>
			<path fill="#FDFDFD" d="M108.855,89.072c-0.15-0.246-0.49-0.341-0.538-0.67c0.179,0.068,0.355,0.143,0.537,0.202
				C109.342,88.762,109.191,88.915,108.855,89.072z"/>
			<path fill="#877421" d="M104.778,90.438c-0.219,0.21-0.5,0.248-0.781,0.284c-0.145,0.019-0.276-0.028-0.298-0.178
				c-0.014-0.095,0.023-0.219,0.08-0.3c0.136-0.194,0.205,0.012,0.289,0.074c0.207,0.152,0.415,0.069,0.624,0.017
				C104.72,90.369,104.749,90.404,104.778,90.438z"/>
			<path fill="#877421" d="M99.445,96.516c-0.474,0.062-0.922,0.307-1.61,0.19C98.496,96.597,98.951,96.42,99.445,96.516z"/>
			<path fill="#877421" d="M94.465,96.8c0.344,0.507,0.065,0.627-0.415,0.663C94.027,97.129,94.263,96.984,94.465,96.8z"/>
			<path fill="#877421" d="M94.523,91.918c0.244-0.309,0.529-0.566,1.042-0.624C95.249,91.682,94.874,91.773,94.523,91.918z"/>
			<path fill="#877421" d="M97.083,93.176c0.203,0.232,0.314,0.504,0.332,0.819c-0.173-0.242-0.349-0.483-0.345-0.807L97.083,93.176
				z"/>
			<path fill="#877421" d="M101.434,91.2c0.225,0.206,0.328,0.447,0.204,0.833c-0.076-0.329-0.135-0.585-0.195-0.841L101.434,91.2z"
				/>
			<path fill="#877421" d="M101.181,90.527c-0.2-0.173-0.249-0.409-0.267-0.657l-0.008,0.006c0.193,0.177,0.276,0.398,0.266,0.658
				C101.172,90.534,101.181,90.527,101.181,90.527z"/>
			<path fill="#877421" d="M101.444,91.193c-0.197-0.179-0.256-0.412-0.263-0.666c0,0-0.009,0.007-0.009,0.007
				c0.207,0.175,0.277,0.404,0.262,0.666C101.434,91.2,101.444,91.193,101.444,91.193z"/>
			<path fill="#CAA933" d="M96.614,90.757c-0.153,0.123-0.312,0.226-0.591,0.123c0.19-0.1,0.34-0.178,0.49-0.257
				C96.546,90.668,96.58,90.712,96.614,90.757z"/>
			<path fill="#877421" d="M104.687,85.161c0.036-0.297,0.263-0.288,0.477-0.298C105.057,85.046,104.883,85.12,104.687,85.161z"/>
			<path fill="#877421" d="M81.743,102.053c0.13,0.09,0.087,0.225,0.036,0.353c-0.01-0.12-0.02-0.239-0.029-0.359
				C81.75,102.048,81.743,102.053,81.743,102.053z"/>
			<path fill="#877421" d="M93.383,98.086c0.09-0.161,0.254-0.108,0.391-0.136l-0.005-0.006c-0.097,0.145-0.248,0.128-0.392,0.134
				L93.383,98.086z"/>
			<path fill="#877421" d="M93.376,98.078c-0.095,0.164-0.258,0.118-0.402,0.13c0,0,0.006,0.008,0.006,0.008
				c0.103-0.139,0.257-0.12,0.402-0.129C93.383,98.086,93.376,98.078,93.376,98.078z"/>
			<path fill="#877421" d="M93.774,97.95c0.068-0.106,0.156-0.14,0.327-0.044c-0.146,0.016-0.239,0.027-0.333,0.037
				C93.768,97.944,93.774,97.95,93.774,97.95z"/>
			<path fill="#877421" d="M100.914,89.87c-0.152-0.098-0.121-0.256-0.13-0.4l-0.006,0.007c0.141,0.101,0.118,0.256,0.129,0.399
				C100.906,89.876,100.914,89.87,100.914,89.87z"/>
			<path fill="#877421" d="M96.554,92.116c-0.034-0.045-0.067-0.089-0.101-0.134c0.023-0.011,0.046-0.023,0.069-0.034
				c0.008,0.058,0.016,0.117,0.024,0.175C96.546,92.124,96.554,92.116,96.554,92.116z"/>
			<path fill="#877421" d="M96.686,92.382c-0.12-0.051-0.126-0.158-0.132-0.266c0,0-0.009,0.008-0.009,0.008
				c0.135,0.043,0.131,0.156,0.132,0.266C96.677,92.39,96.686,92.382,96.686,92.382z"/>
			<path fill="#877421" d="M96.813,92.652c-0.128-0.049-0.128-0.16-0.127-0.27c0,0-0.009,0.008-0.009,0.008
				C96.82,92.426,96.817,92.539,96.813,92.652C96.814,92.651,96.813,92.652,96.813,92.652z"/>
			<path fill="#877421" d="M98.004,95.303c0.061-0.102,0.153-0.142,0.269-0.13c0,0-0.008-0.009-0.008-0.009
				c-0.053,0.119-0.157,0.132-0.268,0.131C97.998,95.295,98.004,95.303,98.004,95.303z"/>
			<path fill="#877421" d="M96.939,92.923c-0.127-0.051-0.127-0.161-0.125-0.271c0,0,0,0,0,0c0.136,0.039,0.135,0.151,0.138,0.26
				C96.952,92.912,96.939,92.923,96.939,92.923z"/>
			<path fill="#877421" d="M97.071,93.187c-0.135-0.043-0.129-0.156-0.132-0.265c0,0,0.013-0.011,0.013-0.011
				c0.128,0.046,0.13,0.155,0.132,0.265C97.083,93.176,97.071,93.187,97.071,93.187z"/>
			<path fill="#FDFDFD" d="M108.324,88.409c-0.112,0.016-0.208-0.007-0.272-0.11C108.157,88.303,108.282,88.254,108.324,88.409z"/>
			<path fill="#FDFDFD" d="M103.292,66.045c0.018-0.107-0.007-0.237,0.143-0.276C103.442,65.89,103.415,65.992,103.292,66.045z"/>
			<path fill="#877421" d="M81.845,99.371c0.042-0.018,0.085-0.037,0.127-0.055c-0.017,0.044-0.034,0.088-0.05,0.133
				C81.896,99.423,81.87,99.397,81.845,99.371z"/>
			<path fill="#FDFDFD" d="M91.935,90.926c-0.099,0.005-0.15-0.037-0.141-0.14C91.885,90.788,91.934,90.833,91.935,90.926z"/>
			<path fill="#FDFDFD" d="M103.196,66.165c-0.009-0.079,0.024-0.124,0.105-0.131C103.319,66.12,103.263,66.147,103.196,66.165z"/>
			<path fill="#CAA933" d="M97.616,105.88c-0.045-0.012-0.089-0.023-0.134-0.035C97.527,105.857,97.571,105.869,97.616,105.88z"/>
			<path fill="#877421" d="M100.783,89.47c-0.02-0.016-0.041-0.032-0.061-0.049c0.011,0.003,0.026,0.002,0.032,0.009
				c0.011,0.013,0.015,0.031,0.023,0.046C100.777,89.477,100.783,89.47,100.783,89.47z"/>
			<path fill="#FDFDFD" d="M89.679,88.555c-0.018-0.04-0.036-0.08-0.053-0.119C89.644,88.476,89.661,88.516,89.679,88.555z"/>
			<path fill="#FDFDFD" d="M102.014,75.007c0.025-0.018,0.05-0.035,0.075-0.053C102.076,74.989,102.051,75.006,102.014,75.007z"/>
			<path fill="#FDFDFD" d="M91.803,90.797c-0.121-0.016-0.14-0.107-0.151-0.204C91.702,90.661,91.753,90.729,91.803,90.797z"/>
			<path fill="#191409" d="M89.647,75.934c-0.466,0.075-0.401-0.61-0.835-0.577c-0.176,0.176,0.094,0.405-0.136,0.708
				c-0.184-0.484-0.306-0.941-0.667-1.24c0.14,0.014,0.279,0.028,0.419,0.042c0.06,0.01,0.121,0.02,0.181,0.03
				C89.091,75.106,89.543,75.345,89.647,75.934z"/>
			<path fill="#CAA933" d="M88.609,74.897c-0.06-0.01-0.121-0.02-0.181-0.03C88.489,74.877,88.549,74.887,88.609,74.897z"/>
			<path fill="#191409" d="M91.124,90.01c-0.373-0.29-0.734-0.592-0.929-1.042C90.768,89.08,91.088,89.418,91.124,90.01z"/>
			<path fill="#191409" d="M92.898,71.07c-0.331-0.018-0.535-0.162-0.549-0.469c-0.011-0.256,0.093-0.473,0.396-0.494
				c0.299-0.02,0.517,0.105,0.547,0.418C93.322,70.82,93.175,71.016,92.898,71.07z"/>
			<path fill="#191409" d="M99.436,69.079c0.31,0.005,0.522,0.14,0.53,0.46c0.007,0.27-0.141,0.463-0.427,0.49
				c-0.309,0.029-0.522-0.131-0.557-0.431C98.947,69.29,99.13,69.113,99.436,69.079z"/>
		</g>
	</g>
</g>
<path fill="none" stroke="#13110C" stroke-width="6" d="M187.07,93.131c0-9.027-9.754-15.581-18.487-15.581
	c-8.732,0-18.476,6.668-18.476,15.581"/>
</svg>
